<svg width="32" height="37" viewBox="0 0 32 37" fill="none" xmlns="http://www.w3.org/2000/svg">
<path d="M19.3541 15.2048C18.3124 15.2048 17.4901 16.1003 17.4901 17.2151C17.4901 18.3299 18.3307 19.2254 19.3541 19.2254C20.3958 19.2254 21.2182 18.3299 21.2182 17.2151C21.2182 16.1003 20.3775 15.2048 19.3541 15.2048ZM12.6837 15.2048C11.642 15.2048 10.8196 16.1003 10.8196 17.2151C10.8196 18.3299 11.6602 19.2254 12.6837 19.2254C13.7253 19.2254 14.5477 18.3299 14.5477 17.2151C14.566 16.1003 13.7253 15.2048 12.6837 15.2048Z" fill="white"/>
<path d="M28.2353 0H3.74643C1.68132 0 0 1.68132 0 3.74643V28.2353C0 30.3004 1.68132 31.9817 3.74643 31.9817H24.4706L23.502 28.6374L25.8412 30.7938L28.0525 32.8224L32 36.2399V3.74643C31.9817 1.68132 30.3004 0 28.2353 0ZM21.181 23.6665C21.181 23.6665 20.5231 22.8806 19.9749 22.2045C22.3689 21.5283 23.2827 20.048 23.2827 20.048C22.5334 20.5414 21.8207 20.8886 21.181 21.1262C20.2673 21.51 19.3901 21.7476 18.5311 21.9121C16.7767 22.241 15.1685 22.1496 13.7978 21.8938C12.7561 21.6927 11.8607 21.4186 11.1114 21.1079C10.691 20.9435 10.2342 20.7424 9.77727 20.4866C9.72244 20.45 9.66762 20.4318 9.61279 20.3952C9.57624 20.3769 9.55797 20.3587 9.53969 20.3587C9.21074 20.1759 9.02798 20.048 9.02798 20.048C9.02798 20.048 9.9052 21.4917 12.2262 22.1862C11.6779 22.8806 11.0017 23.6848 11.0017 23.6848C6.96288 23.5568 5.42775 20.9252 5.42775 20.9252C5.42775 15.0954 8.05939 10.3621 8.05939 10.3621C10.691 8.40662 13.1765 8.46145 13.1765 8.46145L13.3592 8.68075C10.0697 9.61279 8.5711 11.0565 8.5711 11.0565C8.5711 11.0565 8.97316 10.8372 9.64934 10.5448C11.6048 9.68589 13.1582 9.46659 13.7978 9.39349C13.9075 9.37521 13.9989 9.35694 14.1085 9.35694C15.2233 9.21074 16.4843 9.17419 17.8001 9.32039C19.5363 9.52142 21.4003 10.0331 23.301 11.0565C23.301 11.0565 21.8572 9.68589 18.7504 8.75386L19.0063 8.46145C19.0063 8.46145 21.51 8.40662 24.1234 10.3621C24.1234 10.3621 26.755 15.0954 26.755 20.9252C26.755 20.9069 25.2199 23.5385 21.181 23.6665Z" fill="white"/>
</svg>
