<svg width="38" height="32" viewBox="0 0 38 32" fill="none" xmlns="http://www.w3.org/2000/svg">
<path d="M37.3328 16.2395C37.304 15.4786 37.0476 14.7419 36.5945 14.1184C36.1414 13.4949 35.511 13.011 34.7792 12.7253C34.0475 12.4395 33.2457 12.3641 32.4705 12.5079C31.6953 12.6518 30.9798 13.0089 30.4103 13.5362C27.222 11.4457 23.4742 10.2908 19.62 10.2111L21.4417 1.77664L27.4394 2.99314C27.5107 3.63243 27.8159 4.22628 28.3003 4.66809C28.7846 5.10989 29.4163 5.37073 30.082 5.40376C30.7477 5.4368 31.4039 5.23988 31.9326 4.84835C32.4614 4.45682 32.8282 3.89632 32.9671 3.26746C33.1061 2.6386 33.0081 1.98256 32.6908 1.41711C32.3734 0.851654 31.8575 0.413809 31.2357 0.182171C30.6139 -0.0494675 29.9268 -0.0597315 29.2978 0.153221C28.6688 0.366174 28.1391 0.788398 27.8038 1.3441L20.9372 0.0194664C20.8249 -0.00429669 20.7089 -0.00632528 20.5958 0.0134994C20.4826 0.0333241 20.3747 0.0746078 20.2783 0.134957C20.1818 0.195305 20.0987 0.27352 20.0338 0.365067C19.969 0.456614 19.9236 0.559671 19.9003 0.668268L17.8263 10.0489C13.9246 10.1056 10.1253 11.2614 6.89589 13.374C6.46383 12.9819 5.94855 12.6851 5.38575 12.5041C4.82295 12.3232 4.22609 12.2625 3.63654 12.3261C3.04699 12.3898 2.47884 12.5764 1.97147 12.8729C1.46409 13.1694 1.02963 13.5688 0.698194 14.0434C0.366753 14.518 0.14626 15.0564 0.0519916 15.6213C-0.0422762 16.1863 -0.00806302 16.7642 0.15226 17.3151C0.312583 17.8661 0.595182 18.3768 0.980473 18.8119C1.36576 19.247 1.84453 19.5961 2.3836 19.835C2.35204 20.2309 2.35204 20.6285 2.3836 21.0244C2.3836 27.0799 9.69856 32 18.7231 32C27.7477 32 35.0627 27.0799 35.0627 21.0244C35.0942 20.6285 35.0942 20.2309 35.0627 19.835C35.7543 19.5034 36.3345 18.9898 36.7362 18.3535C37.1379 17.7173 37.3448 16.9844 37.3328 16.2395ZM9.30618 18.9429C9.30618 18.2259 9.60146 17.5383 10.1271 17.0313C10.6527 16.5243 11.3655 16.2395 12.1088 16.2395C12.8522 16.2395 13.565 16.5243 14.0906 17.0313C14.6162 17.5383 14.9115 18.2259 14.9115 18.9429C14.9115 19.6598 14.6162 20.3474 14.0906 20.8544C13.565 21.3614 12.8522 21.6462 12.1088 21.6462C11.3655 21.6462 10.6527 21.3614 10.1271 20.8544C9.60146 20.3474 9.30618 19.6598 9.30618 18.9429ZM25.5897 26.377C23.6012 27.8224 21.1548 28.558 18.6671 28.4586C16.1794 28.558 13.7329 27.8224 11.7445 26.377C11.6253 26.237 11.5644 26.0592 11.5736 25.8782C11.5828 25.6972 11.6615 25.526 11.7944 25.3979C11.9272 25.2697 12.1047 25.1939 12.2923 25.185C12.48 25.1761 12.6643 25.2348 12.8095 25.3498C14.4946 26.542 16.5514 27.1429 18.6391 27.0529C20.7293 27.1625 22.7957 26.5808 24.4966 25.4038C24.5683 25.3264 24.6557 25.264 24.7535 25.2206C24.8512 25.1771 24.9572 25.1535 25.0648 25.1512C25.1724 25.1489 25.2793 25.168 25.379 25.2073C25.4786 25.2466 25.5688 25.3052 25.6439 25.3796C25.719 25.4539 25.7775 25.5423 25.8157 25.6394C25.8539 25.7364 25.871 25.84 25.8659 25.9437C25.8608 26.0474 25.8337 26.149 25.7861 26.2422C25.7386 26.3353 25.6717 26.418 25.5897 26.4852V26.377ZM25.0852 21.7543C24.5309 21.7543 23.989 21.5958 23.5281 21.2987C23.0672 21.0017 22.708 20.5795 22.4959 20.0855C22.2837 19.5915 22.2282 19.048 22.3364 18.5236C22.4445 17.9992 22.7114 17.5175 23.1034 17.1394C23.4954 16.7614 23.9948 16.5039 24.5384 16.3996C25.0821 16.2953 25.6456 16.3488 26.1577 16.5534C26.6698 16.758 27.1076 17.1045 27.4155 17.5491C27.7235 17.9937 27.8879 18.5163 27.8879 19.051C27.9031 19.4173 27.8409 19.7827 27.7051 20.1251C27.5693 20.4675 27.3628 20.7797 27.098 21.0427C26.8332 21.3056 26.5158 21.5139 26.1649 21.6549C25.8141 21.7958 25.4372 21.8664 25.0572 21.8625L25.0852 21.7543Z" fill="white"/>
</svg>
