<svg width="32" height="31" viewBox="0 0 32 31" fill="none" xmlns="http://www.w3.org/2000/svg">
<path d="M0.565215 14.7301L7.93867 17.7645L10.7926 27.8846C10.9753 28.5327 11.6941 28.7723 12.1712 28.3422L16.2813 24.6478C16.7121 24.2607 17.3258 24.2415 17.776 24.6018L25.1891 30.5361C25.6995 30.9452 26.4226 30.6368 26.5506 29.9568L31.9811 1.15488C32.1209 0.412046 31.4589 -0.207647 30.8174 0.0659167L0.556575 12.9374C-0.190199 13.2549 -0.183693 14.4207 0.565215 14.7301ZM10.3327 16.1492L24.7432 6.36316C25.0022 6.18781 25.2686 6.57392 25.0462 6.80138L13.1534 18.9906C12.7354 19.4196 12.4657 19.9938 12.3893 20.617L11.9842 23.9273C11.9306 24.3693 11.3675 24.4132 11.2569 23.9854L9.69877 17.949C9.52032 17.2605 9.78037 16.5251 10.3327 16.1492Z" fill="white"/>
</svg>
