<svg width="32" height="26" viewBox="0 0 32 26" fill="none" xmlns="http://www.w3.org/2000/svg">
<path d="M32 2.99908C30.823 3.50751 29.5568 3.85139 28.229 4.00497C29.5847 3.21371 30.6252 1.96171 31.1163 0.467413C29.8477 1.20049 28.442 1.73229 26.9472 2.01894C25.7496 0.776479 24.0433 0 22.1539 0C18.5288 0 15.5887 2.8641 15.5887 6.39546C15.5887 6.89673 15.647 7.38466 15.7596 7.85302C10.3034 7.58641 5.46553 5.04043 2.22724 1.16996C1.66223 2.11433 1.33811 3.21371 1.33811 4.38558C1.33811 6.60388 2.49799 8.56225 4.25864 9.70885C3.18296 9.67594 2.16996 9.38833 1.28523 8.90804C1.28474 8.93523 1.28474 8.96241 1.28474 8.98912C1.28474 12.0879 3.5487 14.6725 6.55149 15.2596C6.00116 15.4065 5.41999 15.4843 4.82218 15.4843C4.39818 15.4843 3.98739 15.4447 3.58689 15.3703C4.42217 17.9105 6.84623 19.7597 9.71976 19.8117C7.47244 21.5273 4.642 22.5494 1.56529 22.5494C1.03651 22.5494 0.512623 22.5193 0 22.4597C2.90388 24.275 6.35564 25.3333 10.063 25.3333C22.1387 25.3333 28.7426 15.5882 28.7426 7.13616C28.7426 6.85906 28.7362 6.5829 28.7235 6.30913C30.0073 5.40769 31.1202 4.2816 32 2.99908Z" fill="white"/>
</svg>
