<svg width="289" height="300" viewBox="0 0 289 300" fill="none" xmlns="http://www.w3.org/2000/svg">
<g clip-path="url(#clip0)">
<path opacity="0.4" d="M178.418 237.27L142.357 216.476C139.755 214.979 140.083 212.355 143.088 210.629L166.449 197.154L211.946 223.35L188.584 236.825C185.586 238.582 181.045 238.767 178.418 237.27Z" fill="#D6D8E5"/>
<path d="M181.076 235.723L145.014 214.929C142.412 213.432 142.741 210.809 145.745 209.082L169.125 195.607L214.597 221.828L191.236 235.303C188.219 237.035 183.678 237.221 181.076 235.723Z" fill="#B1B4C4"/>
<path d="M214.585 221.834V220.454L212.485 221.667L214.585 221.834Z" fill="#B1B4C4"/>
<path d="M143.261 212.448V211.056L145.417 211.947L143.261 212.448Z" fill="#B1B4C4"/>
<path d="M181.076 234.344L145.014 213.556C142.412 212.052 142.741 209.435 145.745 207.703L169.125 194.234L214.597 220.454L191.236 233.923C188.219 235.655 183.678 235.847 181.076 234.344Z" fill="#D6D8E5"/>
<path d="M169.231 194.296L163.599 175.648L209.573 201.98L214.585 220.454L169.231 194.296Z" fill="#9EA1AF"/>
<path d="M213.247 221.221L214.579 220.454L212.602 218.876L213.247 221.221Z" fill="#9EA1AF"/>
<path d="M167.775 194.995L162.15 176.347L208.123 202.685L213.247 221.221L167.775 194.995Z" fill="#B1B4C4"/>
<path d="M284.478 252.651L106.555 150.046C104.077 148.611 102.033 144.744 102.033 141.422V3.95345C102.033 0.631051 104.059 -0.897131 106.555 0.544433L284.478 103.149C286.956 104.585 289 108.445 289 111.768V249.242C289 252.564 286.974 254.093 284.478 252.651Z" fill="#C4C7D6"/>
<path d="M285.394 254.068L287.364 252.936L286.516 247.095L285.394 254.068Z" fill="#C4C7D6"/>
<path d="M101.692 1.3859L103.631 0.272247L106.419 1.85611C106.419 1.85611 103.451 2.30776 103.377 2.29539C103.303 2.28301 101.692 1.3859 101.692 1.3859Z" fill="#B1B4C4"/>
<path d="M282.848 253.591L104.895 150.962C102.417 149.527 100.379 145.666 100.379 142.337V4.89385C100.379 1.57145 102.404 0.0432685 104.895 1.48483L282.848 104.09C285.326 105.525 287.364 109.386 287.364 112.714V250.182C287.364 253.505 285.345 255.033 282.848 253.591Z" fill="#E4E7F2"/>
<path d="M282.532 253.771L104.585 151.166C102.107 149.725 100.063 145.864 100.063 142.542V5.07327C100.063 1.75086 102.089 0.222681 104.585 1.66425L282.532 104.269C285.01 105.704 287.055 109.565 287.055 112.887V250.362C287.055 253.666 285.029 255.212 282.532 253.771Z" fill="#D6D8E5"/>
<path d="M284.608 245.412L102.324 140.308L102.417 5.62392C102.417 4.24422 103.39 3.6874 104.585 4.38652L282.532 106.979C283.163 107.39 283.688 107.944 284.064 108.595C284.441 109.246 284.659 109.977 284.701 110.728L284.608 245.412Z" fill="white"/>
<path d="M128.052 48.9079L111.511 39.3552C111.225 39.1491 110.99 38.879 110.827 38.5664C110.663 38.2538 110.575 37.9074 110.57 37.5548V18.7836C110.57 18.0906 110.991 17.7751 111.511 18.072L128.052 27.6309C128.339 27.8351 128.574 28.1039 128.738 28.4156C128.901 28.7274 128.989 29.0732 128.994 29.4251V48.1964C128.994 48.877 128.572 49.2111 128.052 48.9079Z" fill="#F4F7FF"/>
<path d="M151.023 62.1543L134.433 52.5892C134.146 52.3831 133.912 52.1129 133.749 51.8004C133.585 51.4878 133.497 51.1414 133.491 50.7888V32.0299C133.491 31.337 133.913 31.0214 134.433 31.3184L151.005 40.8773C151.298 41.0812 151.538 41.3522 151.705 41.6675C151.872 41.9828 151.961 42.3334 151.965 42.6901V61.4428C151.965 62.1357 151.544 62.4884 151.023 62.1543Z" fill="#F4F7FF"/>
<path d="M173.462 75.0788L156.859 65.52C156.572 65.3158 156.337 65.047 156.174 64.7353C156.01 64.4235 155.922 64.0777 155.917 63.7257V44.9545C155.917 44.2615 156.339 43.9398 156.859 44.243L173.462 53.8266C173.749 54.0307 173.984 54.2996 174.147 54.6113C174.311 54.923 174.399 55.2689 174.404 55.6208V74.3673C174.373 75.0603 173.951 75.3758 173.462 75.0788Z" fill="#F4F7FF"/>
<path d="M128.052 75.4006L111.511 65.8479C111.225 65.6418 110.99 65.3717 110.827 65.0591C110.663 64.7465 110.575 64.4001 110.57 64.0475V45.2763C110.57 44.5833 110.991 44.2678 111.511 44.5648L128.052 54.1174C128.339 54.3236 128.573 54.5937 128.736 54.9063C128.9 55.2189 128.988 55.5652 128.994 55.9178V74.6891C128.994 75.382 128.572 75.7038 128.052 75.4006Z" fill="#F4F7FF"/>
<path d="M151.023 88.6469L134.433 79.0942C134.146 78.888 133.912 78.6179 133.749 78.3053C133.585 77.9928 133.497 77.6464 133.491 77.2938V58.5225C133.491 57.8296 133.913 57.514 134.433 57.811L151.005 67.3637C151.291 67.5698 151.526 67.84 151.689 68.1525C151.853 68.4651 151.941 68.8115 151.946 69.1641V87.9354C151.965 88.6283 151.544 88.95 151.023 88.6469Z" fill="#F4F7FF"/>
<path d="M153.285 87.4033L136.713 77.8445C136.426 77.6403 136.191 77.3715 136.027 77.0597C135.864 76.748 135.776 76.4022 135.771 76.0502V57.279C135.771 56.586 136.192 56.2643 136.713 56.5675L153.285 66.1202C153.571 66.3263 153.805 66.5964 153.969 66.909C154.132 67.2216 154.22 67.568 154.226 67.9206V86.6918C154.257 87.3848 153.805 87.7003 153.285 87.4033Z" fill="#FC3869"/>
<path d="M173.462 101.565L156.859 92.0126C156.572 91.8085 156.337 91.5396 156.174 91.2279C156.01 90.9162 155.922 90.5703 155.917 90.2184V71.4409C155.917 70.7542 156.339 70.4324 156.859 70.7356L173.462 80.2883C173.749 80.4924 173.984 80.7613 174.147 81.073C174.311 81.3847 174.399 81.7306 174.404 82.0825V100.848C174.373 101.547 173.951 101.868 173.462 101.565Z" fill="#F4F7FF"/>
<path d="M128.052 102.45L111.511 92.8973C111.224 92.6932 110.989 92.4244 110.826 92.1126C110.662 91.8009 110.574 91.4551 110.57 91.1031V72.3257C110.57 71.6389 110.991 71.3172 111.511 71.6204L128.052 81.173C128.339 81.3772 128.574 81.646 128.738 81.9578C128.901 82.2695 128.989 82.6153 128.994 82.9673V101.745C128.994 102.431 128.572 102.753 128.052 102.45Z" fill="#F4F7FF"/>
<path d="M173.462 143.76L111.511 108.043C111.225 107.837 110.99 107.567 110.827 107.254C110.663 106.942 110.575 106.595 110.57 106.243V101.912C110.57 101.219 110.991 100.897 111.511 101.2L173.462 136.924C173.749 137.128 173.984 137.397 174.147 137.708C174.311 138.02 174.399 138.366 174.404 138.718V143.049C174.373 143.742 173.951 144.064 173.462 143.76Z" fill="#F4F7FF"/>
<path d="M157.522 144.775L111.759 118.412C111.472 118.208 111.237 117.939 111.073 117.628C110.91 117.316 110.822 116.97 110.817 116.618V114.459C110.817 113.766 111.239 113.444 111.759 113.747L157.522 140.129C157.809 140.335 158.043 140.605 158.206 140.917C158.37 141.23 158.458 141.576 158.464 141.929V144.076C158.464 144.775 158.042 145.097 157.522 144.775Z" fill="#F4F7FF"/>
<path d="M157.522 152.942L111.759 126.554C111.472 126.35 111.237 126.082 111.073 125.77C110.91 125.458 110.822 125.112 110.817 124.76V122.613C110.817 121.92 111.239 121.605 111.759 121.902L157.522 148.283C157.809 148.489 158.043 148.759 158.206 149.072C158.37 149.385 158.458 149.731 158.464 150.084V152.23C158.464 152.923 158.042 153.239 157.522 152.942Z" fill="#F4F7FF"/>
<path d="M148.886 156.11L111.759 134.696C111.472 134.492 111.237 134.223 111.073 133.912C110.91 133.6 110.822 133.254 110.817 132.902V130.755C110.817 130.062 111.239 129.747 111.759 130.044L148.886 151.451C149.173 151.657 149.407 151.927 149.57 152.24C149.734 152.552 149.822 152.899 149.828 153.251V155.398C149.828 156.091 149.406 156.407 148.886 156.11Z" fill="#FC3869"/>
<path d="M275.439 202.933L186.001 151.383C185.714 151.179 185.479 150.91 185.315 150.598C185.152 150.286 185.064 149.94 185.059 149.589V145.258C185.059 144.565 185.48 144.249 186.001 144.546L275.439 196.127C275.726 196.331 275.961 196.6 276.124 196.912C276.288 197.223 276.376 197.569 276.381 197.921V202.252C276.381 202.933 275.959 203.254 275.439 202.933Z" fill="#F4F7FF"/>
<path d="M266.623 208.08L186.286 161.752C185.999 161.548 185.764 161.279 185.6 160.967C185.437 160.656 185.349 160.31 185.344 159.958V157.811C185.344 157.118 185.765 156.803 186.286 157.099L266.623 203.421C266.91 203.627 267.144 203.898 267.308 204.21C267.471 204.523 267.559 204.869 267.565 205.222V207.369C267.565 208.062 267.144 208.377 266.623 208.08Z" fill="#F4F7FF"/>
<path d="M266.623 216.222L186.286 169.9C185.999 169.694 185.765 169.424 185.601 169.111C185.438 168.799 185.35 168.453 185.344 168.1V165.953C185.344 165.26 185.765 164.945 186.286 165.242L266.623 211.594C266.911 211.798 267.145 212.067 267.309 212.379C267.473 212.691 267.56 213.037 267.565 213.389V215.535C267.565 216.204 267.144 216.544 266.623 216.222Z" fill="#F4F7FF"/>
<path d="M251.73 215.777L186.286 178.036C185.999 177.83 185.765 177.56 185.601 177.247C185.438 176.935 185.35 176.588 185.344 176.236V174.089C185.344 173.396 185.765 173.08 186.286 173.377L251.73 211.118C252.016 211.323 252.251 211.592 252.414 211.904C252.578 212.215 252.666 212.561 252.672 212.912V215.059C252.672 215.758 252.245 216.074 251.73 215.777Z" fill="#FC3869"/>
<path d="M151.023 115.696L134.433 106.144C134.146 105.939 133.911 105.671 133.747 105.359C133.584 105.047 133.496 104.701 133.491 104.349V85.5719C133.491 84.8851 133.913 84.5634 134.433 84.8666L151.005 94.4193C151.292 94.6234 151.527 94.8923 151.69 95.204C151.854 95.5157 151.942 95.8616 151.946 96.2135V114.991C151.965 115.696 151.544 115.999 151.023 115.696Z" fill="#F4F7FF"/>
<path d="M173.462 128.621L156.859 119.062C156.572 118.858 156.337 118.589 156.174 118.277C156.01 117.966 155.922 117.62 155.917 117.268V98.4965C155.917 97.8036 156.339 97.4819 156.859 97.785L173.462 107.338C173.748 107.544 173.983 107.814 174.146 108.127C174.31 108.439 174.398 108.786 174.404 109.138V127.909C174.373 128.602 173.951 128.918 173.462 128.621Z" fill="#F4F7FF"/>
<path d="M275.439 187.465L186.001 135.866C185.714 135.662 185.479 135.393 185.315 135.081C185.152 134.769 185.064 134.424 185.059 134.072V104.659C185.059 103.966 185.48 103.644 186.001 103.947L275.439 155.516C275.725 155.722 275.96 155.992 276.123 156.305C276.287 156.617 276.375 156.963 276.381 157.316V186.729C276.381 187.422 275.959 187.737 275.439 187.465Z" fill="#F4F7FF"/>
<path d="M198.242 100.136C190.647 95.7557 184.464 85.0708 184.464 76.31C184.464 67.5493 190.659 63.9918 198.242 68.366C205.825 72.7402 212.014 83.4374 212.014 92.192C212.014 100.947 205.831 104.516 198.242 100.136ZM198.242 72.9567C192.84 69.8632 188.448 72.3813 188.448 78.6054C188.448 84.8295 192.84 92.4333 198.242 95.5453C203.644 98.6574 208.037 96.1269 208.037 89.8966C208.037 83.6664 203.632 76.0997 198.242 72.9567Z" fill="#F4F7FF"/>
<path d="M198.242 100.136C190.647 95.7557 184.464 85.0708 184.464 76.31C184.464 67.5493 190.659 63.9918 198.242 68.366V72.9567C192.84 69.8632 188.448 72.3813 188.448 78.6054C188.448 84.8295 192.84 92.4333 198.242 95.5453C203.644 98.6574 208.037 96.1269 208.037 89.8966L212.014 92.192C212.008 100.953 205.831 104.516 198.242 100.136Z" fill="#FC3869"/>
<path d="M230.37 118.672C222.775 114.292 216.598 103.601 216.598 94.8462C216.598 86.0916 222.793 82.5218 230.37 86.9021C237.946 91.2825 244.141 101.967 244.141 110.728C244.141 119.489 237.965 123.053 230.37 118.672ZM230.37 91.4929C224.968 88.3994 220.575 90.9113 220.575 97.1416C220.575 103.372 224.968 110.963 230.37 114.081C235.772 117.2 240.164 114.663 240.164 108.433C240.164 102.202 235.772 94.6049 230.37 91.4929Z" fill="#F4F7FF"/>
<path d="M230.37 118.672C222.775 114.292 216.598 103.601 216.598 94.8462C216.598 86.0916 222.793 82.5218 230.37 86.9021V91.4929C224.968 88.3994 220.575 90.9113 220.575 97.1416C220.575 103.372 224.968 110.963 230.37 114.081C232.377 115.238 234.304 115.653 235.945 115.319L238.219 120.398C235.908 120.887 233.195 120.299 230.37 118.672Z" fill="#FC3869"/>
<path d="M262.504 137.196C254.909 132.816 248.732 122.125 248.732 113.37C248.732 104.615 254.927 101.046 262.504 105.426C270.08 109.806 276.3 120.491 276.3 129.252C276.3 138.013 270.105 141.576 262.504 137.196ZM262.504 110.017C257.108 106.923 252.709 109.435 252.709 115.665C252.709 121.896 257.108 129.487 262.504 132.605C267.9 135.724 272.298 133.187 272.298 126.957C272.298 120.726 267.906 113.129 262.504 110.017Z" fill="#F4F7FF"/>
<path d="M250.516 122.23C249.395 119.407 248.791 116.406 248.732 113.37C248.732 104.609 254.927 101.046 262.504 105.426V110.017C257.108 106.923 252.709 109.435 252.709 115.665C252.756 117.823 253.193 119.955 253.998 121.958L250.516 122.23Z" fill="#FC3869"/>
<path opacity="0.4" d="M210.378 296.826C218.104 296.826 224.367 293.214 224.367 288.758C224.367 284.303 218.104 280.69 210.378 280.69C202.653 280.69 196.39 284.303 196.39 288.758C196.39 293.214 202.653 296.826 210.378 296.826Z" fill="#D6D8E5"/>
<path opacity="0.4" d="M62.4959 300.006C70.2215 300.006 76.4844 296.394 76.4844 291.938C76.4844 287.483 70.2215 283.871 62.4959 283.871C54.7703 283.871 48.5074 287.483 48.5074 291.938C48.5074 296.394 54.7703 300.006 62.4959 300.006Z" fill="#D6D8E5"/>
<path opacity="0.4" d="M13.9885 226.82C21.7141 226.82 27.9769 223.208 27.9769 218.753C27.9769 214.297 21.7141 210.685 13.9885 210.685C6.26285 210.685 0 214.297 0 218.753C0 223.208 6.26285 226.82 13.9885 226.82Z" fill="#D6D8E5"/>
<path d="M217.335 286.828C216.425 287.564 215.08 286.89 215.012 286.958C213.946 287.95 212.825 288.881 211.655 289.748C211.091 290.194 210.205 290.794 210.366 291.648C210.651 293.182 213.104 292.712 214.033 292.266C214.963 291.821 215.712 291.029 216.592 290.478C217.211 290.088 217.831 289.89 217.93 289.099C217.986 288.597 217.496 286.809 217.335 286.828Z" fill="#030303"/>
<path d="M217.918 288.758C217.794 289.513 217.187 289.723 216.567 290.107C215.675 290.658 214.895 291.456 213.965 291.92C213.036 292.384 210.979 292.786 210.378 291.691C210.707 293.169 213.117 292.705 214.034 292.241C214.95 291.777 215.712 291.004 216.592 290.453C217.212 290.064 217.831 289.866 217.93 289.074C217.934 288.968 217.93 288.863 217.918 288.758Z" fill="#282828"/>
<path d="M209.437 283.895C208.526 284.638 206.959 283.827 206.866 283.895C205.922 284.856 204.92 285.759 203.867 286.599C203.304 287.044 202.418 287.645 202.579 288.498C202.864 290.027 205.317 289.556 206.246 289.117C207.176 288.678 207.925 287.88 208.805 287.329C209.424 286.939 210.044 286.71 210.143 285.949C210.199 285.448 209.598 283.877 209.437 283.895Z" fill="#030303"/>
<path d="M210.112 285.714C210.013 286.457 209.393 286.679 208.774 287.075C207.882 287.626 207.095 288.424 206.172 288.894C205.249 289.365 203.18 289.754 202.579 288.659C202.907 290.138 205.317 289.674 206.234 289.21C207.151 288.746 207.919 287.972 208.793 287.422C209.412 287.032 210.032 286.803 210.131 286.048C210.14 285.937 210.134 285.824 210.112 285.714Z" fill="#282828"/>
<path d="M217.385 253.288C217.342 254.662 216.914 260.626 216.722 263.806C216.53 266.986 216.487 270.835 216.487 270.835C216.487 270.835 217.032 273.136 217.385 275.84C217.738 278.543 217.385 287.082 217.385 287.082C217.038 287.305 216.633 287.424 216.22 287.424C215.807 287.424 215.403 287.305 215.056 287.082C215.056 287.082 213.6 280.276 212.925 277.182C212.249 274.089 212.138 272.326 211.785 270.42C211.363 268.112 210.447 257.341 210.447 257.341H210.081L209.108 269.498C209.412 270.394 209.619 271.318 209.728 272.258C209.994 274.244 209.449 284.205 209.449 284.205C209.061 284.421 208.621 284.526 208.177 284.507C207.733 284.489 207.302 284.347 206.934 284.099C206.934 284.099 204.499 270.903 204.499 268.898C204.499 267.568 204.728 250.052 204.728 250.052L217.385 253.288Z" fill="#FC3869"/>
<path d="M214.089 226.734C214.089 226.734 213.934 229.728 214.002 229.994C214.071 230.26 215.378 231.139 215.762 231.448C216.146 231.758 213.687 234.183 212.491 234.734C211.295 235.284 207.535 233.836 207.448 231.98C207.361 230.124 208.068 228.565 208.687 228.485C209.307 228.404 214.089 226.734 214.089 226.734Z" fill="#FFCEA9"/>
<path d="M205.875 232.29C205.695 230.972 206.568 229.716 205.726 228.664C202.765 231.56 203.136 239.232 202.467 244.132C200.268 246.427 195.851 248.685 194.606 249.248C194.377 249.347 194.184 249.459 194.228 249.7C194.395 250.517 194.747 251.285 195.256 251.946C198.18 250.708 200.287 249.966 203.929 246.501C204.278 246.12 204.589 245.705 204.859 245.264C205.912 242.17 206.172 234.573 205.875 232.29Z" fill="#FFCEA9"/>
<path d="M214.424 230.508C214.424 230.508 212.249 233.75 209.207 234.053C208.253 233.113 208.167 229.759 209.492 228.683C209.492 228.683 208.253 227.705 207.436 227.891C206.545 228.436 205.884 229.288 205.577 230.285C204.804 232.511 204.441 234.859 204.505 237.215C204.555 240.395 204.505 250.108 204.505 250.108C204.505 250.108 204.933 252.162 207.683 253.69C210.434 255.219 212.466 255.367 214.331 254.928C215.867 254.569 217.137 254.025 217.67 252.911C217.534 250.684 216.536 244.868 216.908 242.071C217.28 239.275 217.874 237.177 218.023 234.913C218.172 232.649 217.726 232.692 216.592 231.888C215.904 231.376 215.179 230.915 214.424 230.508Z" fill="#F4F4F4"/>
<path d="M207.299 222.267C207.659 219.941 209.338 218.177 211.735 218.313C212.343 218.347 212.938 218.499 213.486 218.762C214.034 219.025 214.525 219.394 214.931 219.847C215.337 220.299 215.649 220.828 215.85 221.401C216.051 221.975 216.137 222.582 216.103 223.189C216.064 223.894 215.862 224.581 215.513 225.195C215.163 225.809 214.676 226.333 214.089 226.728C214.003 227.081 213.879 227.423 213.718 227.748C212.869 228.738 210.298 229.351 209.561 229.246C209.121 229.207 208.704 229.037 208.362 228.757C208.021 228.478 207.771 228.103 207.646 227.68C206.853 225.855 207.101 223.418 207.299 222.267Z" fill="#FFCEA9"/>
<path d="M214.089 226.728L213.866 224.705C213.866 224.705 215.526 220.411 211.605 221.234C209.015 221.778 208.365 222.013 207.578 220.281C206.791 218.548 209.567 216.983 212.869 217.416C214.005 217.535 215.056 218.077 215.812 218.933C216.568 219.788 216.975 220.897 216.951 222.038C216.865 223.312 216.524 225.899 214.089 226.728Z" fill="#3A2C6D"/>
<path d="M218.686 233.583C217.552 233.261 218.42 233.527 217.552 233.261C214.591 236.157 214.957 241.125 214.287 246.037C212.652 248.735 206.587 252.391 206.587 252.391C206.513 252.917 206.692 253.072 207.349 254.124C210.727 252.833 213.798 250.855 216.369 248.314C216.518 248.178 216.728 248.141 216.79 247.955C217.825 244.825 218.983 235.866 218.686 233.583Z" fill="#FFCEA9"/>
<path d="M191.688 239.634L196.099 254.693L205.769 258.547L202.244 243.884L191.688 239.634Z" fill="#F4F4F4"/>
<path d="M208.105 252.503C207.962 251.989 207.591 252.113 207.169 252.243C206.716 252.428 206.217 252.471 205.738 252.367C205.364 252.186 205.018 251.953 204.71 251.674C204.523 251.56 204.309 251.498 204.09 251.494C204.09 251.624 204.313 252.385 204.313 252.385C204.313 252.385 202.195 252.385 201.978 252.385C201.905 252.37 201.829 252.378 201.761 252.408C201.693 252.439 201.636 252.49 201.599 252.555C201.562 252.619 201.546 252.694 201.554 252.768C201.562 252.842 201.593 252.911 201.643 252.967C201.596 252.97 201.548 252.97 201.501 252.967C201.067 252.868 200.881 253.536 201.315 253.635C201.432 253.657 201.55 253.674 201.668 253.684C201.383 253.796 201.315 254.266 201.668 254.303H201.773C201.826 254.318 201.882 254.318 201.934 254.303H201.996C201.988 254.353 201.989 254.405 202 254.455C202.012 254.505 202.033 254.552 202.063 254.594C202.093 254.635 202.131 254.67 202.175 254.697C202.219 254.723 202.268 254.741 202.319 254.749C203.353 254.885 204.877 255.299 205.813 254.445C206.455 254.377 207.083 254.206 207.671 253.938C208.26 253.697 208.278 253.115 208.105 252.503Z" fill="#FFCEA9"/>
<path d="M197.524 251.271H197.375C197.425 251.225 197.461 251.164 197.478 251.098C197.495 251.032 197.492 250.962 197.471 250.897C197.449 250.832 197.41 250.774 197.356 250.731C197.303 250.688 197.239 250.66 197.171 250.653C196.954 250.653 194.773 250.201 194.773 250.201L194.507 249.304C194.507 249.254 194.129 249.483 194.116 249.49C193.932 249.611 193.778 249.771 193.664 249.96C193.551 250.148 193.481 250.359 193.46 250.578C193.446 250.886 193.493 251.193 193.6 251.482C193.706 251.771 193.869 252.036 194.079 252.261C194.475 252.649 195.005 252.87 195.56 252.88C195.82 252.88 196.074 252.88 196.303 252.929C196.355 252.933 196.407 252.926 196.456 252.908C196.505 252.891 196.55 252.864 196.589 252.828C196.627 252.793 196.658 252.75 196.679 252.703C196.7 252.655 196.711 252.604 196.712 252.552H196.78C196.831 252.564 196.884 252.564 196.935 252.552H197.047C197.418 252.552 197.449 252.094 197.195 251.933C197.313 251.933 197.431 251.933 197.555 251.933C198.007 251.958 197.963 251.265 197.524 251.271Z" fill="#FFCEA9"/>
<path d="M204.642 234.251C204.042 234.227 203.475 233.975 203.056 233.546C203.143 232.432 204.567 228.206 207.436 227.891C206.656 228.44 206.037 229.188 205.645 230.056C205.203 231.427 204.868 232.829 204.642 234.251Z" fill="#EDEDED"/>
<path d="M219.2 239.838C219.2 239.838 216.344 240.822 214.331 239.17C214.114 238.792 215.496 233.942 215.496 233.942C215.496 233.942 216.697 231.467 218.593 232.444C220.489 233.422 219.2 239.838 219.2 239.838Z" fill="#EDEDED"/>
<path d="M52.6891 237.988C52.6891 237.988 53.0856 243.909 53.86 244.763C54.6343 245.617 57.2672 246.198 57.2672 246.198L59.2992 249.533C59.2992 249.533 57.4407 238.935 57.0442 238.681C56.6477 238.427 52.6891 237.988 52.6891 237.988Z" fill="#FFCEA9"/>
<path d="M56.5858 231.393C56.0932 231.163 55.533 231.123 55.0128 231.281C54.4926 231.438 54.0489 231.782 53.7671 232.246C53.0175 233.484 52.2431 237.716 52.1749 238.433C52.1749 238.433 53.2219 239.881 54.7892 239.671L56.5858 231.393Z" fill="#EDEDED"/>
<path d="M62.5703 290.546C63.6744 290.849 64.8535 290.707 65.8537 290.15C66.6404 290.15 70.9336 288.338 71.516 289.878C72.0302 291.227 70.1716 292.477 69.1804 292.718C67.0121 293.244 65.4076 294.32 64.5341 294.506C63.9146 294.642 63.0473 294.729 62.5331 294.221C61.9508 293.609 61.9879 291.351 62.5703 290.546Z" fill="#030303"/>
<path d="M64.5589 294.129C65.4324 293.949 67.037 292.891 69.2052 292.341C70.0354 292.143 71.4664 291.233 71.6151 290.15C71.8072 291.388 70.1283 292.495 69.2052 292.718C67.037 293.244 65.4324 294.32 64.5589 294.506C63.9394 294.642 63.0721 294.729 62.5579 294.221C62.4205 294.075 62.3225 293.896 62.2729 293.702C62.5945 293.945 62.9686 294.111 63.3654 294.185C63.7622 294.259 64.1709 294.24 64.5589 294.129Z" fill="#282828"/>
<path d="M55.9105 288.461C57.0144 288.768 58.1948 288.625 59.1939 288.065C59.9869 288.065 64.2738 286.259 64.8624 287.799C65.3704 289.148 63.5119 290.398 62.5206 290.639C60.3524 291.159 58.7478 292.242 57.8805 292.421C57.2301 292.557 56.3875 292.65 55.8733 292.143C55.2538 291.53 55.3096 289.272 55.9105 288.461Z" fill="#030303"/>
<path d="M57.8806 292.025C58.7479 291.839 60.3586 290.788 62.5207 290.237C63.3508 290.039 64.7881 289.129 64.9305 288.041C65.1226 289.278 63.4437 290.385 62.5207 290.614C60.3524 291.134 58.7479 292.217 57.8806 292.396C57.2301 292.532 56.3875 292.625 55.8734 292.118C55.7394 291.969 55.6418 291.791 55.5884 291.598C55.9111 291.842 56.2862 292.007 56.684 292.082C57.0819 292.156 57.4915 292.136 57.8806 292.025Z" fill="#282828"/>
<path d="M55.4398 276.409C55.6243 274.819 55.9561 273.249 56.431 271.719C56.431 271.719 56.1336 267.667 55.9849 263.825C55.8177 259.494 54.3061 255.633 55.4955 252.156L68.7654 255.107C68.7654 255.107 68.1459 272.517 67.9414 274.621C67.8385 276.26 67.6316 277.89 67.3219 279.503C66.7024 282.874 66.0395 290.423 66.0395 290.423C64.6147 291.252 62.5269 290.571 62.5269 290.571C62.5269 290.571 62.5269 281.124 62.6075 278.692C62.719 275.722 62.8119 275.951 62.8119 275.951L62.3659 268.558L62.0747 264.883C62.0747 264.883 61.703 267.58 61.4552 269.987C61.2445 272.091 60.7366 273.99 60.1666 277.906C59.6772 281.297 59.1692 288.22 59.1692 288.22C57.7443 289.043 55.8239 288.474 55.8239 288.474C55.8239 288.474 55.0557 279.354 55.4398 276.409Z" fill="#FC3869"/>
<path d="M57.3045 231.479C58.3267 231.529 59.0887 231.795 59.2188 231.479C59.3292 230.95 59.4078 230.415 59.4542 229.877C59.3365 229.58 59.2312 229.258 59.2312 229.258C57.9426 228.472 57.5399 227.08 57.3726 225.459C57.0877 222.694 58.6116 220.275 61.3499 219.984C63.958 219.712 65.8723 221.543 66.3865 224.049C66.659 225.286 67.2104 227.631 66.467 229.667C66.0519 230.811 65.5191 231.714 64.9864 231.888C64.4696 231.878 63.9542 231.833 63.4438 231.752C63.4438 231.752 63.3075 232.519 63.2146 232.989C63.1217 233.459 63.1526 233.738 64.1376 234.344C65.1227 234.95 62.6508 236.2 61.0401 236.07C59.4294 235.94 57.608 234.975 57.1124 233.936C56.5487 232.816 56.5982 231.442 57.3045 231.479Z" fill="#FFCEA9"/>
<path d="M58.785 231.634C58.5 232.339 59.2249 233.206 61.1515 233.806C63.0782 234.406 63.2455 233.632 63.2455 233.632C64.519 234.207 65.7599 234.852 66.9625 235.563C68.1148 236.367 68.629 238.706 68.7839 242.647C68.9635 247.207 68.9821 253.975 68.8272 255.145C68.8272 255.145 66.6713 257.298 63.8712 257.069C61.071 256.84 56.4371 254.396 55.3282 252.509C55.3282 248.512 55.83 247.862 55.1795 245.555C53.6927 240.277 52.9121 238.13 53.6369 234.616C54.2564 231.727 55.0618 231.368 56.2079 231.393C57.0706 231.427 57.9309 231.508 58.785 231.634Z" fill="#F4F4F4"/>
<path d="M66.4298 258.659L65.0483 242.771L68.0158 241.199L69.1743 242.17L68.7654 256.438V256.834V257.341C68.7654 257.341 68.8273 258.541 66.5599 259.977C66.5599 259.977 66.5228 259.599 66.4918 259.246L66.436 258.628L66.4298 258.659Z" fill="#FFCEA9"/>
<path d="M66.0766 234.579C67.6068 234.579 68.5547 235.359 68.9574 237.716C69.36 240.073 69.5769 242.003 69.5769 242.003C68.8719 242.785 67.8945 243.267 66.8448 243.352C64.9863 243.556 64.4535 242.616 64.4535 242.616C64.4535 242.616 64.2553 240.172 64.1562 238.508C64.057 236.843 64.181 234.616 66.0766 234.579Z" fill="#EDEDED"/>
<path d="M66.2873 223.696C66.2873 223.696 68.6786 220.064 63.4933 219.322C59.7763 218.79 57.3478 221.178 57.0691 223.795C56.8027 226.27 58.3391 228.862 59.448 229.889C60.5369 230.166 61.6899 230.027 62.6818 229.5C62.7425 228.823 62.7653 228.143 62.7499 227.464C62.7499 227.464 60.9348 223.628 66.2873 223.696Z" fill="#3A2C6D"/>
<path d="M14.0381 145.97C13.4929 145.091 9.32981 144.516 7.96069 148.036C7.44031 149.373 7.52084 152.788 7.08719 154.928C6.65353 157.069 5.63135 158.288 5.26584 160.027C4.90033 161.765 5.49506 164.685 9.69531 165.199C13.8956 165.712 17.1294 164.24 18.1082 162.903C19.087 161.567 19.118 158.727 18.1082 157.205C17.0984 155.683 16.2993 154.44 16.324 152.454L14.0381 145.97Z" fill="#3A2C6D"/>
<path d="M19.0189 160.7C19.0189 160.7 20.004 167.667 18.1454 172.616C16.2869 177.566 16.7949 171.348 16.7949 171.348L17.2471 169.869C17.2471 169.869 17.6189 164.19 17.464 162.798C17.3091 161.406 17.3463 160.205 17.2471 160.094C17.148 159.983 17.6127 159.76 17.8109 159.735C18.0091 159.71 19.0189 160.7 19.0189 160.7Z" fill="#FFCEA9"/>
<path d="M11.2875 145.357C11.2875 145.357 14.4222 144.46 16.3179 146.149C16.9447 146.724 17.4015 147.461 17.6385 148.278C17.8755 149.095 17.8837 149.961 17.6622 150.783C17.4082 151.773 16.9002 153.121 16.1134 153.196C15.3267 153.27 11.2875 145.357 11.2875 145.357Z" fill="#3A2C6D"/>
<path d="M10.0918 153.895C10.0918 153.895 10.2963 157.378 10.2343 157.607C10.1724 157.836 8.85902 158.114 8.49351 158.417C8.12801 158.72 10.3954 162.259 11.5477 162.785C12.7 163.311 16.2621 161.969 16.5037 160.199C16.733 158.566 15.4877 157.297 15.0045 156.858C14.6766 156.835 14.3475 156.835 14.0195 156.858L13.9142 155.163C12.3902 154.674 10.0918 153.895 10.0918 153.895Z" fill="#FFCEA9"/>
<path d="M9.60864 157.972C8.62982 158.126 7.50851 158.646 7.35363 159.209C6.9512 161.142 7.04929 163.146 7.63861 165.031C8.48733 167.271 9.05728 168.7 9.54669 169.665C9.54669 169.665 13.7903 171.484 17.2162 169.368C17.2162 169.368 17.4454 166.961 17.464 165.656C20.6235 162.903 17.9224 159.512 15.2462 156.877C14.9248 156.846 14.6011 156.846 14.2797 156.877C14.2797 156.877 16.671 159.692 15.0107 161.294C11.4548 160.205 10.7485 158.609 9.60864 157.972Z" fill="#F4F4F4"/>
<path d="M16.6152 149.57C16.2621 147.33 14.639 145.641 12.3282 145.771C11.1468 145.843 10.042 146.379 9.25591 147.263C8.46979 148.147 8.06642 149.305 8.13417 150.486C8.17494 151.166 8.37288 151.828 8.71251 152.419C9.05214 153.011 9.52422 153.516 10.0918 153.895C10.1729 154.232 10.2914 154.56 10.4449 154.872C11.2689 155.825 13.4433 156.431 14.162 156.437C14.7815 156.437 15.3205 155.868 15.9028 154.903C17.1108 152.898 16.8073 150.677 16.6152 149.57Z" fill="#FFCEA9"/>
<path d="M11.6096 145.814C9.98652 146.13 8.65458 146.588 8.21473 148.178C7.91117 149.273 7.51469 151.364 7.89259 152.243L8.128 152.861L10.0918 153.876C10.0918 153.876 11.0087 153.109 10.7113 150.875C10.7195 150.573 10.8141 150.279 10.9839 150.028C11.1081 149.816 11.2 149.586 11.2565 149.347C11.4886 148.742 11.9458 148.25 12.5327 147.974C13.9947 147.151 16.1382 147.862 16.4356 148.159C16.0221 147.275 15.3171 146.56 14.4386 146.133C13.56 145.706 12.5613 145.594 11.6096 145.814Z" fill="#3A2C6D"/>
<path d="M8.67315 216.439C9.4971 217.107 10.7733 216.643 10.8352 216.705C11.7901 217.529 12.789 218.302 13.8274 219.019C14.3416 219.421 15.1408 219.959 14.9983 220.732C14.7381 222.112 12.5203 221.685 11.684 221.265C10.8476 220.844 10.1662 220.139 9.37939 219.65C8.81564 219.303 8.25808 219.118 8.14038 218.412C8.1156 217.961 8.51828 216.42 8.67315 216.439Z" fill="#030303"/>
<path d="M8.18377 218.103C8.28909 218.784 8.84045 218.969 9.42279 219.34C10.2281 219.835 10.9344 220.578 11.7707 220.98C12.6071 221.382 14.4656 221.753 15.0107 220.77C14.7134 222.1 12.5327 221.685 11.7088 221.265C10.8848 220.844 10.191 220.139 9.4042 219.65C8.84045 219.303 8.28289 219.118 8.16519 218.412C8.15398 218.309 8.16026 218.204 8.18377 218.103Z" fill="#282828"/>
<path d="M14.4222 215.306C15.1779 215.925 16.2807 215.572 16.3674 215.628C17.2437 216.379 18.162 217.079 19.118 217.726C19.5826 218.091 20.3137 218.586 20.1836 219.291C19.9482 220.528 17.9162 220.169 17.1542 219.78C16.3922 219.39 15.7603 218.753 15.0355 218.301C14.5213 217.985 14.0133 217.818 13.9327 217.163C13.9579 216.516 14.125 215.882 14.4222 215.306Z" fill="#030303"/>
<path d="M13.9451 216.884C14.0443 217.503 14.5647 217.682 15.0541 217.998C15.7913 218.456 16.4418 219.112 17.2038 219.501C17.9657 219.891 19.6818 220.213 20.1712 219.31C19.9048 220.547 17.91 220.145 17.1542 219.761C16.3984 219.378 15.7603 218.734 15.0355 218.282C14.5213 217.967 14.0133 217.8 13.9328 217.144C13.9254 217.057 13.9295 216.97 13.9451 216.884Z" fill="#282828"/>
<path d="M18.8516 177.139C18.4861 174.312 17.4453 170.204 17.4453 170.204C16.4585 170.662 15.3917 170.925 14.3044 170.977C12.7097 170.973 11.1189 170.82 9.5528 170.519C9.04039 171.409 8.48208 172.273 7.88013 173.105C7.06238 174.237 5.47025 176.718 5.85434 181.049C6.10834 183.883 7.71286 195.898 7.71286 195.898C7.09608 197.921 6.76863 200.02 6.74024 202.134C6.88683 204.647 7.21813 207.145 7.73145 209.608L8.67929 216.414C8.67929 216.414 9.91831 217.323 10.8414 216.68L10.7299 209.998C10.8352 208.365 10.9962 205.952 11.1016 204.43C11.275 201.924 11.7211 197.94 11.8512 196.95C11.9813 195.96 12.3034 194.215 12.4707 192.266C12.6379 190.317 13.3566 180.418 13.3566 180.418L13.4619 182.274C13.4619 182.274 13.5548 185.287 13.9885 189C14.4221 192.712 14.577 194.357 14.577 194.357C14.1566 195.101 13.8575 195.908 13.6911 196.746C13.6168 197.544 12.6937 203.892 13.2451 207.121L14.3726 215.331C14.6536 215.524 14.9765 215.648 15.3146 215.692C15.6528 215.736 15.9966 215.699 16.3178 215.585L16.9807 207.313C17.4267 204.164 18.3684 197.488 18.5109 196.622C18.8308 194.873 19.0192 193.103 19.0746 191.326C19.2941 186.597 19.2196 181.859 18.8516 177.139Z" fill="#FFCEA9"/>
<path d="M9.54663 169.64L7.10577 174.534C7.10577 174.534 3.38873 179.973 7.24206 193.955L6.51724 198.286C6.51724 198.286 13.815 202.964 18.7029 198.286C18.7029 198.286 20.3942 185.368 19.4959 179.41C18.9937 175.983 18.2337 172.6 17.2223 169.288C17.2223 169.288 16.0267 170.606 9.86877 169.733" fill="#FC3869"/>
<path d="M24.8113 173.118C24.1881 173.143 23.5673 173.209 22.9528 173.316C22.3674 173.499 21.7574 173.593 21.1438 173.594C20.4748 173.594 18.61 172.666 17.0117 171.546C15.2763 170.244 13.7762 168.656 12.576 166.85C11.3174 164.923 10.2212 162.895 9.29886 160.787C8.77847 159.29 8.79086 160.311 7.90497 160.286C6.858 160.286 6.30044 160.645 7.08102 162.68C7.86193 164.786 8.95176 166.765 10.3148 168.552C11.595 170.353 13.1724 171.924 14.9797 173.198C16.5716 174.311 18.2917 175.229 20.1031 175.933C20.6234 176.143 20.958 176.434 21.8996 176.953C22.8453 177.494 23.9082 177.798 24.9972 177.838C25.9016 177.838 26.2362 177.665 26.2981 177.479C26.3601 177.294 26.2176 177.09 25.8025 177.052C25.1423 177.042 24.4895 176.912 23.8759 176.669C23.8759 176.669 24.7741 176.799 25.3193 176.824C25.8074 176.852 26.2971 176.815 26.7751 176.712C27.2336 176.601 27.4876 175.957 27.0725 175.908C26.6574 175.858 26.3167 175.908 25.5114 175.877C25.0909 175.849 24.6751 175.772 24.2723 175.648C24.8136 175.652 25.3543 175.613 25.8893 175.53C26.323 175.488 26.7356 175.323 27.0787 175.054C27.2584 174.906 27.2893 174.491 26.7628 174.497C26.1126 174.611 25.451 174.644 24.7927 174.596C24.1422 174.503 23.69 174.349 23.7891 174.262C23.8882 174.176 24.2723 174.262 24.8175 174.064C25.3627 173.866 25.7344 173.39 25.6105 173.111C25.4866 172.833 25.3998 173.012 24.8113 173.118Z" fill="#FFCEA9"/>
<path d="M7.54566 164.61C7.54566 164.61 9.93695 164.734 11.2937 163.243L9.81925 160.15C9.81925 160.15 9.14398 158.448 7.55185 158.869C5.95972 159.29 5.93494 161.548 7.54566 164.61Z" fill="#EDEDED"/>
<path d="M15.2461 156.871C15.2461 156.871 17.1851 156.252 19.2419 160.583L18.4737 161.047C18.4737 161.047 16.4479 157.966 15.2461 156.871Z" fill="#EDEDED"/>
<path d="M48.6623 67.438L14.3788 47.6397L14.2487 47.5654C13.2822 47.0519 11.9751 47.1447 10.5316 47.9738C7.57657 49.6814 5.17908 53.8267 5.17908 57.2542C5.17908 59.0175 5.82956 60.2364 6.86414 60.7623L41.6123 80.7895L48.6623 67.438Z" fill="#FC3869"/>
<path d="M48.9559 76.3035C51.0464 72.6874 51.0477 68.7795 48.9587 67.5751C46.8698 66.3706 43.4816 68.3256 41.3911 71.9417C39.3006 75.5578 39.2994 79.4657 41.3883 80.6702C43.4773 81.8747 46.8654 79.9197 48.9559 76.3035Z" fill="#D31041"/>
<path d="M60.4887 88.9315L42.6283 78.6364V71.41L60.4887 81.7114V88.9315Z" fill="#D6D8E5"/>
<path d="M60.4887 81.7236L42.6283 71.4285L46.7418 69.0527L64.6022 79.354L60.4887 81.7236Z" fill="#C4C7D6"/>
<path d="M104.198 128.965C114.948 122.767 114.948 102.667 104.198 84.0718C93.4474 65.4763 76.0181 55.4265 65.2681 61.6249C54.5182 67.8232 54.5183 87.9227 65.2685 106.518C76.0187 125.114 93.448 135.164 104.198 128.965Z" fill="url(#paint0_linear)"/>
<path d="M88.4904 131.677C70.06 121.048 55.037 95.1061 55.037 73.8477C55.037 52.5892 70.0352 43.946 88.4904 54.5752C106.945 65.2045 121.944 91.1464 121.944 112.399C121.944 133.651 106.927 142.3 88.4904 131.677ZM88.4904 66.7512C75.8772 59.4753 65.6182 65.3901 65.6182 79.9356C65.6182 94.4812 75.8772 112.232 88.4904 119.532C101.104 126.833 111.363 120.887 111.363 106.348C111.363 91.8084 101.104 74.0209 88.4904 66.7512Z" fill="#D31041"/>
<path d="M84.7362 133.843C66.2997 123.214 51.2828 97.2716 51.2828 76.0131C51.2828 54.7547 66.2749 46.1115 84.7362 56.7407C103.198 67.3699 118.19 93.3119 118.19 114.564C118.19 135.816 103.167 144.472 84.7362 133.843ZM84.7362 68.9167C72.1231 61.6408 61.864 67.5555 61.864 82.1011C61.864 96.6467 72.1231 114.397 84.7362 121.698C97.3494 128.998 107.608 123.053 107.608 108.513C107.608 93.9739 97.3494 76.1864 84.7362 68.9167Z" fill="#FC3869"/>
</g>
<defs>
<linearGradient id="paint0_linear" x1="115.518" y1="113.041" x2="53.9912" y2="77.4708" gradientUnits="userSpaceOnUse">
<stop stop-color="white" stop-opacity="0.4"/>
<stop offset="0.89" stop-color="white" stop-opacity="0"/>
</linearGradient>
<clipPath id="clip0">
<rect width="289" height="300" fill="white"/>
</clipPath>
</defs>
</svg>
