<svg width="120" height="120" viewBox="0 0 120 120" fill="none" xmlns="http://www.w3.org/2000/svg">
<path d="M101.25 45V88.7695C101.248 90.7576 100.458 92.664 99.054 94.0711L80.9461 112.179C79.539 113.583 77.6327 114.373 75.6446 114.375H26.1821C25.1975 114.379 24.2221 114.186 23.3129 113.808C22.4038 113.43 21.579 112.875 20.887 112.175C20.195 111.475 19.6495 110.643 19.2826 109.73C18.9157 108.816 18.7346 107.838 18.7501 106.854V45H101.25Z" fill="#FC3869"/>
<path d="M100.575 91.875C100.204 92.6926 99.689 93.4366 99.0539 94.0711L80.9461 112.179C80.3116 112.814 79.5676 113.329 78.75 113.7V99.375C78.7502 97.386 79.5405 95.4784 80.947 94.072C82.3534 92.6655 84.261 91.8752 86.25 91.875H100.575Z" fill="#C50031"/>
<path d="M28.125 30H31.875V45H28.125V30Z" fill="#FFC431"/>
<path d="M37.5 20.625H45V33.75H37.5V20.625Z" fill="#F78E00"/>
<path d="M60 45V31.875H52.5V45" fill="#F78E00"/>
<path d="M28.125 3.75H31.875V26.25H28.125V3.75Z" fill="#FFC431"/>
<path d="M20.625 37.5H24.375V45H20.625V37.5Z" fill="#FFC431"/>
<path d="M20.625 3.75H24.375V11.25H20.625V3.75Z" fill="#FFC431"/>
<path d="M20.625 15H24.375V33.75H20.625V15Z" fill="#FFC431"/>
<path d="M95.625 37.5H99.375V45H95.625V37.5Z" fill="#FFC431"/>
<path d="M95.625 3.75H99.375V11.25H95.625V3.75Z" fill="#FFC431"/>
<path d="M95.625 15H99.375V33.75H95.625V15Z" fill="#FFC431"/>
<path d="M35.625 3.75H39.375V15H35.625V3.75Z" fill="#FFC431"/>
<path d="M43.125 3.75H46.875V7.5H43.125V3.75Z" fill="#FFC431"/>
<path d="M43.125 11.25H46.875V15H43.125V11.25Z" fill="#FFC431"/>
<path d="M50.625 16.875H54.375V26.25H50.625V16.875Z" fill="#FFC431"/>
<path d="M58.125 3.75H61.875V16.875H58.125V3.75Z" fill="#FFC431"/>
<path d="M58.125 20.625H61.875V26.25H58.125V20.625Z" fill="#FFC431"/>
<path d="M50.625 3.75H54.375V13.125H50.625V3.75Z" fill="#FFC431"/>
<path d="M35.625 39.375H39.375V45H35.625V39.375Z" fill="#FFC431"/>
<path d="M43.125 39.375H46.875V45H43.125V39.375Z" fill="#FFC431"/>
<path d="M67.5 13.125H75V26.25H67.5V13.125Z" fill="#F78E00"/>
<path d="M82.5 37.5H90V45H82.5V37.5Z" fill="#F78E00"/>
<path d="M65.625 3.75H69.375V7.5H65.625V3.75Z" fill="#FFC431"/>
<path d="M73.125 3.75H76.875V7.5H73.125V3.75Z" fill="#FFC431"/>
<path d="M80.625 15H84.375V31.875H80.625V15Z" fill="#FFC431"/>
<path d="M88.125 3.75H91.875V22.5H88.125V3.75Z" fill="#FFC431"/>
<path d="M88.125 26.25H91.875V31.875H88.125V26.25Z" fill="#FFC431"/>
<path d="M80.625 3.75H84.375V11.25H80.625V3.75Z" fill="#FFC431"/>
<path d="M65.625 31.875H69.375V45H65.625V31.875Z" fill="#FFC431"/>
<path d="M73.125 31.875H76.875V45H73.125V31.875Z" fill="#FFC431"/>
<path d="M39.375 56.25H45V60H39.375V56.25Z" fill="white"/>
<path d="M48.75 56.25H75V60H48.75V56.25Z" fill="white"/>
<path d="M78.75 56.25H90V60H78.75V56.25Z" fill="white"/>
<path d="M30 67.5H41.25V71.25H30V67.5Z" fill="white"/>
<path d="M45 67.5H75V71.25H45V67.5Z" fill="white"/>
<path d="M30 90H50.625V93.75H30V90Z" fill="white"/>
<path d="M54.375 90H73.125V93.75H54.375V90Z" fill="white"/>
<path d="M30 101.25H35.625V105H30V101.25Z" fill="white"/>
<path d="M65.625 101.25H73.125V105H65.625V101.25Z" fill="white"/>
<path d="M39.375 101.25H61.875V105H39.375V101.25Z" fill="white"/>
<path d="M78.75 67.5H90V71.25H78.75V67.5Z" fill="white"/>
<path d="M30 78.75H33.75V82.5H30V78.75Z" fill="white"/>
<path d="M37.5 78.75H63.75V82.5H37.5V78.75Z" fill="white"/>
<path d="M67.5 78.75H90V82.5H67.5V78.75Z" fill="white"/>
</svg>
