<svg width="120" height="120" viewBox="0 0 120 120" fill="none" xmlns="http://www.w3.org/2000/svg">
<path d="M16.875 99.375H22.5V103.125H16.875V99.375Z" fill="#D1E4FF"/>
<path d="M30.7765 103.125H26.25V99.3749H29.2235L44.6437 83.9545L47.2957 86.606L30.7765 103.125Z" fill="#D1E4FF"/>
<path d="M16.875 99.375H22.5V103.125H16.875V99.375Z" fill="#D1E4FF"/>
<path d="M30.7765 103.125H26.25V99.375H29.2235L48.5184 80.0798L51.1702 82.7316L30.7765 103.125Z" fill="#D1E4FF"/>
<path d="M97.5 99.375H103.125V103.125H97.5V99.375Z" fill="#D1E4FF"/>
<path d="M93.7501 103.125H89.2236L68.83 82.7316L71.4817 80.0798L90.7766 99.375H93.7501V103.125Z" fill="#D1E4FF"/>
<path d="M13.125 58.125H26.25V61.875H13.125V58.125Z" fill="#D1E4FF"/>
<path d="M30 58.125H45V61.875H30V58.125Z" fill="#D1E4FF"/>
<path d="M13.125 58.125H26.25V61.875H13.125V58.125Z" fill="#D1E4FF"/>
<path d="M30 58.125H48.75V61.875H30V58.125Z" fill="#D1E4FF"/>
<path d="M93.75 58.125H106.875V61.875H93.75V58.125Z" fill="#D1E4FF"/>
<path d="M71.25 58.125H90V61.875H71.25V58.125Z" fill="#D1E4FF"/>
<path d="M16.875 16.875H22.5V20.625H16.875V16.875Z" fill="#D1E4FF"/>
<path d="M39.9241 31.3259L29.2235 20.625H26.25V16.875H30.7765L42.5759 28.6741L39.9241 31.3259Z" fill="#D1E4FF"/>
<path d="M16.875 16.875H22.5V20.625H16.875V16.875Z" fill="#D1E4FF"/>
<path d="M39.9241 31.3259L29.2235 20.625H26.25V16.875H30.7765L42.5759 28.6741L39.9241 31.3259Z" fill="#D1E4FF"/>
<path d="M97.5 16.875H103.125V20.625H97.5V16.875Z" fill="#D1E4FF"/>
<path d="M80.076 31.3259L77.4243 28.6741L89.2237 16.875H93.7502V20.625H90.7767L80.076 31.3259Z" fill="#D1E4FF"/>
<path d="M73.125 58.125L75 114.375H69.375L60 73.125L50.625 114.375H45L46.875 58.125H73.125Z" fill="#556C80"/>
<path d="M103.125 39.375V45L90.15 47.8828C87.6278 48.4436 84.9894 48.1192 82.6781 46.9641L75 43.125L73.125 58.125H46.875L45 43.125L37.3219 46.9641C35.0106 48.1192 32.3722 48.4436 29.85 47.8828L16.875 45V39.375H28.3617C29.4613 39.375 30.5475 39.1333 31.5434 38.6672C32.5393 38.201 33.4206 37.5217 34.125 36.6773L35.3649 35.1891L38.8688 30.982C40.4294 29.1095 42.4502 27.675 44.7328 26.8195L56.25 22.5H63.75L75.2672 26.8195C77.5498 27.675 79.5706 29.1095 81.1312 30.982L84.6351 35.1891L85.875 36.6773C86.5794 37.5217 87.4607 38.201 88.4566 38.6672C89.4525 39.1333 90.5387 39.375 91.6383 39.375H103.125Z" fill="#FC3869"/>
<path d="M41.25 45.0001L37.3219 46.9641C35.0106 48.1193 32.3722 48.4437 29.85 47.8829L16.875 45.0001V39.3751H28.3617C29.4613 39.375 30.5475 39.1334 31.5434 38.6672C32.5393 38.2011 33.4206 37.5218 34.125 36.6774L35.3649 35.1891L41.25 45.0001Z" fill="#FFCEB6"/>
<path d="M103.125 39.3751V45.0001L90.15 47.8829C87.6278 48.4437 84.9894 48.1193 82.6781 46.9641L78.75 45.0001L84.6351 35.1891L85.875 36.6774C86.5794 37.5218 87.4607 38.2011 88.4566 38.6672C89.4525 39.1334 90.5387 39.375 91.6383 39.3751H103.125Z" fill="#FFCEB6"/>
<path d="M16.875 22.5H9.375V15H16.875V22.5Z" fill="#FFB401"/>
<path d="M16.875 24.375H9.375C8.87772 24.375 8.40081 24.1774 8.04918 23.8258C7.69755 23.4742 7.5 22.9973 7.5 22.5V15C7.5 14.5027 7.69755 14.0258 8.04918 13.6742C8.40081 13.3226 8.87772 13.125 9.375 13.125H16.875C17.3723 13.125 17.8492 13.3226 18.2008 13.6742C18.5524 14.0258 18.75 14.5027 18.75 15V22.5C18.75 22.9973 18.5524 23.4742 18.2008 23.8258C17.8492 24.1774 17.3723 24.375 16.875 24.375ZM11.25 20.625H15V16.875H11.25V20.625Z" fill="#FFE28F"/>
<path d="M16.875 22.5H9.375V15H16.875V22.5Z" fill="#FFB401"/>
<path d="M16.875 24.375H9.375C8.87772 24.375 8.40081 24.1774 8.04918 23.8258C7.69755 23.4742 7.5 22.9973 7.5 22.5V15C7.5 14.5027 7.69755 14.0258 8.04918 13.6742C8.40081 13.3226 8.87772 13.125 9.375 13.125H16.875C17.3723 13.125 17.8492 13.3226 18.2008 13.6742C18.5524 14.0258 18.75 14.5027 18.75 15V22.5C18.75 22.9973 18.5524 23.4742 18.2008 23.8258C17.8492 24.1774 17.3723 24.375 16.875 24.375ZM11.25 20.625H15V16.875H11.25V20.625Z" fill="#FFE28F"/>
<path d="M103.125 15H110.625V22.5H103.125V15Z" fill="#FFB401"/>
<path d="M110.625 24.375H103.125C102.628 24.375 102.151 24.1774 101.799 23.8258C101.448 23.4742 101.25 22.9973 101.25 22.5V15C101.25 14.5027 101.448 14.0258 101.799 13.6742C102.151 13.3226 102.628 13.125 103.125 13.125H110.625C111.122 13.125 111.599 13.3226 111.951 13.6742C112.302 14.0258 112.5 14.5027 112.5 15V22.5C112.5 22.9973 112.302 23.4742 111.951 23.8258C111.599 24.1774 111.122 24.375 110.625 24.375ZM105 20.625H108.75V16.875H105V20.625Z" fill="#FFE28F"/>
<path d="M16.875 105H9.375V97.5H16.875V105Z" fill="#FFB401"/>
<path d="M16.875 106.875H9.375C8.87772 106.875 8.40081 106.677 8.04918 106.326C7.69755 105.974 7.5 105.497 7.5 105V97.5C7.5 97.0027 7.69755 96.5258 8.04918 96.1742C8.40081 95.8226 8.87772 95.625 9.375 95.625H16.875C17.3723 95.625 17.8492 95.8226 18.2008 96.1742C18.5524 96.5258 18.75 97.0027 18.75 97.5V105C18.75 105.497 18.5524 105.974 18.2008 106.326C17.8492 106.677 17.3723 106.875 16.875 106.875ZM11.25 103.125H15V99.375H11.25V103.125Z" fill="#FFE28F"/>
<path d="M16.875 105H9.375V97.5H16.875V105Z" fill="#FFB401"/>
<path d="M16.875 106.875H9.375C8.87772 106.875 8.40081 106.677 8.04918 106.326C7.69755 105.974 7.5 105.497 7.5 105V97.5C7.5 97.0027 7.69755 96.5258 8.04918 96.1742C8.40081 95.8226 8.87772 95.625 9.375 95.625H16.875C17.3723 95.625 17.8492 95.8226 18.2008 96.1742C18.5524 96.5258 18.75 97.0027 18.75 97.5V105C18.75 105.497 18.5524 105.974 18.2008 106.326C17.8492 106.677 17.3723 106.875 16.875 106.875ZM11.25 103.125H15V99.375H11.25V103.125Z" fill="#FFE28F"/>
<path d="M103.125 97.5H110.625V105H103.125V97.5Z" fill="#FFB401"/>
<path d="M110.625 106.875H103.125C102.628 106.875 102.151 106.677 101.799 106.326C101.448 105.974 101.25 105.497 101.25 105V97.5C101.25 97.0027 101.448 96.5258 101.799 96.1742C102.151 95.8226 102.628 95.625 103.125 95.625H110.625C111.122 95.625 111.599 95.8226 111.951 96.1742C112.302 96.5258 112.5 97.0027 112.5 97.5V105C112.5 105.497 112.302 105.974 111.951 106.326C111.599 106.677 111.122 106.875 110.625 106.875ZM105 103.125H108.75V99.375H105V103.125Z" fill="#FFE28F"/>
<path d="M13.125 63.75H5.625V56.25H13.125V63.75Z" fill="#FFB401"/>
<path d="M13.125 65.625H5.625C5.12772 65.625 4.65081 65.4274 4.29918 65.0758C3.94755 64.7242 3.75 64.2473 3.75 63.75V56.25C3.75 55.7527 3.94755 55.2758 4.29918 54.9242C4.65081 54.5726 5.12772 54.375 5.625 54.375H13.125C13.6223 54.375 14.0992 54.5726 14.4508 54.9242C14.8024 55.2758 15 55.7527 15 56.25V63.75C15 64.2473 14.8024 64.7242 14.4508 65.0758C14.0992 65.4274 13.6223 65.625 13.125 65.625ZM7.5 61.875H11.25V58.125H7.5V61.875Z" fill="#FFE28F"/>
<path d="M13.125 63.75H5.625V56.25H13.125V63.75Z" fill="#FFB401"/>
<path d="M13.125 65.625H5.625C5.12772 65.625 4.65081 65.4274 4.29918 65.0758C3.94755 64.7242 3.75 64.2473 3.75 63.75V56.25C3.75 55.7527 3.94755 55.2758 4.29918 54.9242C4.65081 54.5726 5.12772 54.375 5.625 54.375H13.125C13.6223 54.375 14.0992 54.5726 14.4508 54.9242C14.8024 55.2758 15 55.7527 15 56.25V63.75C15 64.2473 14.8024 64.7242 14.4508 65.0758C14.0992 65.4274 13.6223 65.625 13.125 65.625ZM7.5 61.875H11.25V58.125H7.5V61.875Z" fill="#FFE28F"/>
<path d="M106.875 56.25H114.375V63.75H106.875V56.25Z" fill="#FFB401"/>
<path d="M114.375 65.625H106.875C106.378 65.625 105.901 65.4274 105.549 65.0758C105.198 64.7242 105 64.2473 105 63.75V56.25C105 55.7527 105.198 55.2758 105.549 54.9242C105.901 54.5726 106.378 54.375 106.875 54.375H114.375C114.872 54.375 115.349 54.5726 115.701 54.9242C116.052 55.2758 116.25 55.7527 116.25 56.25V63.75C116.25 64.2473 116.052 64.7242 115.701 65.0758C115.349 65.4274 114.872 65.625 114.375 65.625ZM108.75 61.875H112.5V58.125H108.75V61.875Z" fill="#FFE28F"/>
<path d="M58.125 22.5H61.875V43.125H58.125V22.5Z" fill="#C50031"/>
<path d="M54.375 13.125V9.9427C54.375 9.37569 54.4867 8.81424 54.7037 8.29039C54.9206 7.76654 55.2387 7.29056 55.6396 6.88962C56.0406 6.48869 56.5165 6.17065 57.0404 5.95366C57.5642 5.73668 58.1257 5.625 58.6927 5.625C59.5451 5.625 60.3785 5.87732 61.0877 6.35016L65.625 9.375V13.125H54.375Z" fill="#B1712C"/>
<path d="M65.625 13.125V18.75C65.625 20.2418 65.0324 21.6726 63.9775 22.7275C62.9226 23.7824 61.4918 24.375 60 24.375C58.5082 24.375 57.0774 23.7824 56.0225 22.7275C54.9676 21.6726 54.375 20.2418 54.375 18.75V13.125H65.625Z" fill="#FFCEB6"/>
</svg>
