<svg width="120" height="120" viewBox="0 0 120 120" fill="none" xmlns="http://www.w3.org/2000/svg">
<path d="M37.5 67.5V114.375H31.875L26.25 88.125V67.5H37.5Z" fill="#4B6275"/>
<path d="M37.5 37.5V35.407C37.5 33.7199 37.1205 32.0543 36.3897 30.5337C35.6588 29.013 34.5953 27.6762 33.2778 26.6223L28.125 22.5H22.5L18.295 26.705C16.1853 28.8147 15 31.6762 15 34.6599V58.125H37.5V37.5Z" fill="#548AFF"/>
<path d="M95.625 45L101.25 58.125H105V39.375L101.081 33.8859L97.8609 29.3789C96.4011 27.3365 94.3863 25.7553 92.0555 24.8227L86.25 22.5H81.5156L76.3174 24.3989C73.0631 25.5877 70.3868 27.9765 68.8373 31.0754L65.625 37.5L54.375 43.125V48.75H73.125V58.125H95.625V45Z" fill="#FC3869"/>
<path d="M65.625 37.5L73.125 46.875V48.75H54.375V43.125L65.625 37.5Z" fill="#FFBFA1"/>
<path d="M105 39.3749V58.1249H101.25L95.625 44.9999L91.875 41.2499L101.081 33.8859L105 39.3749Z" fill="#FFCEB6"/>
<path d="M39.375 9.375V20.625C39.375 21.6196 39.7701 22.5734 40.4734 23.2766C41.1766 23.9799 42.1304 24.375 43.125 24.375H46.875V31.875L56.25 24.375H63.75C64.7446 24.375 65.6984 23.9799 66.4017 23.2766C67.1049 22.5734 67.5 21.6196 67.5 20.625V9.375C67.5 8.38044 67.1049 7.42661 66.4017 6.72335C65.6984 6.02009 64.7446 5.625 63.75 5.625H43.125C42.1304 5.625 41.1766 6.02009 40.4734 6.72335C39.7701 7.42661 39.375 8.38044 39.375 9.375Z" fill="#FFC431"/>
<path d="M45 13.125H48.75V16.875H45V13.125Z" fill="#FFA100"/>
<path d="M52.5 13.125H61.875V16.875H52.5V13.125Z" fill="#FFA100"/>
<path d="M80.625 22.5H84.375V45H80.625V22.5Z" fill="#C50031"/>
<path d="M31.875 13.125V9.9427C31.875 9.37569 31.7633 8.81424 31.5463 8.29039C31.3294 7.76654 31.0113 7.29056 30.6104 6.88962C30.2094 6.48869 29.7335 6.17065 29.2096 5.95366C28.6858 5.73668 28.1243 5.625 27.5573 5.625C26.7049 5.625 25.8715 5.87732 25.1623 6.35016L20.625 9.375V13.125H31.875Z" fill="#B1712C"/>
<path d="M20.625 13.125V18.75C20.625 20.2418 21.2176 21.6726 22.2725 22.7275C23.3274 23.7824 24.7582 24.375 26.25 24.375C27.7418 24.375 29.1726 23.7824 30.2275 22.7275C31.2824 21.6726 31.875 20.2418 31.875 18.75V13.125H20.625Z" fill="#FFCEB6"/>
<path d="M37.5 44.9999L15 34.9991V58.1249H37.5V44.9999Z" fill="#4976F2"/>
<path d="M54.375 43.125V48.75H35.625L30 45L15 34.9992L30 31.875L39.375 39.375L54.375 43.125Z" fill="#548AFF"/>
<path d="M54.375 43.125V48.75H35.625L30 45L36.1523 36.7969L39.375 39.375L54.375 43.125Z" fill="#FFCEB6"/>
<path d="M15 58.125V114.375H20.625L30 71.25L37.5 67.5V58.125H15Z" fill="#556C80"/>
<path d="M88.125 13.125V18.75C88.125 20.2418 87.5324 21.6726 86.4775 22.7275C85.4226 23.7824 83.9918 24.375 82.5 24.375C81.0082 24.375 79.5774 23.7824 78.5225 22.7275C77.4676 21.6726 76.875 20.2418 76.875 18.75V13.125H88.125Z" fill="#FFCEB6"/>
<path d="M76.875 13.125V9.9427C76.875 9.37569 76.9867 8.81423 77.2037 8.29039C77.4207 7.76654 77.7387 7.29056 78.1396 6.88962C78.5406 6.48869 79.0165 6.17065 79.5404 5.95366C80.0642 5.73668 80.6257 5.625 81.1927 5.625C82.0451 5.625 82.8785 5.87732 83.5877 6.35016L88.125 9.375V13.125H76.875Z" fill="#B1712C"/>
<path d="M73.125 67.5V114.375H78.75L84.375 88.125V67.5H73.125Z" fill="#4B6275"/>
<path d="M95.625 58.125V114.375H90L80.625 71.25L73.125 67.5V58.125H95.625Z" fill="#556C80"/>
</svg>
