<svg width="120" height="120" viewBox="0 0 120 120" fill="none" xmlns="http://www.w3.org/2000/svg">
<path d="M78.75 88.125V75L105 48.75V5.625H45V48.75L71.25 75V88.125H78.75Z" fill="#FFC431"/>
<path d="M24.375 88.125H15C12.5136 88.125 10.129 89.1127 8.37087 90.8709C6.61272 92.629 5.625 95.0136 5.625 97.5V114.375H24.375V88.125Z" fill="#5BCFFF"/>
<path d="M15 114.375V89.3923C15 87.849 15.381 86.3294 16.1093 84.9687C16.8376 83.6079 17.8905 82.448 19.1747 81.5919L26.25 76.875H33.75L39.4127 80.2726C40.5765 80.9709 41.5748 81.9135 42.3386 83.0354C43.1025 84.1573 43.6136 85.4316 43.8367 86.7704L45 93.75V114.375H15Z" fill="#FC3869"/>
<path d="M35.625 69.375V66.1927C35.625 65.6257 35.5133 65.0642 35.2963 64.5404C35.0794 64.0165 34.7613 63.5406 34.3604 63.1396C33.9594 62.7387 33.4835 62.4207 32.9596 62.2037C32.4358 61.9867 31.8743 61.875 31.3073 61.875C30.4549 61.875 29.6215 62.1273 28.9123 62.6002L24.375 65.625V69.375H35.625Z" fill="#B1712C"/>
<path d="M24.375 69.375V75C24.375 76.4918 24.9676 77.9226 26.0225 78.9775C27.0774 80.0324 28.5082 80.625 30 80.625C31.4918 80.625 32.9226 80.0324 33.9775 78.9775C35.0324 77.9226 35.625 76.4918 35.625 75V69.375H24.375Z" fill="#FFCEB6"/>
<path d="M45 101.25H60V106.875H45V101.25Z" fill="#62798C"/>
<path d="M60 101.25L67.5 88.125H90L78.75 106.875H60V101.25Z" fill="#718799"/>
<path d="M24.375 106.875H114.375V114.375H24.375V106.875Z" fill="#B1712C"/>
<path d="M50.625 33.75H54.375V48.75H50.625V33.75Z" fill="#FFE28F"/>
<path d="M60 24.375H67.5V37.5H60V24.375Z" fill="#F78E00"/>
<path d="M75 35.625H82.5V50.625H75V35.625Z" fill="#F78E00"/>
<path d="M50.625 5.625H54.375V30H50.625V5.625Z" fill="#FFE28F"/>
<path d="M58.125 5.625H61.875V18.75H58.125V5.625Z" fill="#FFE28F"/>
<path d="M65.625 5.625H69.375V11.25H65.625V5.625Z" fill="#FFE28F"/>
<path d="M65.625 15H69.375V18.75H65.625V15Z" fill="#FFE28F"/>
<path d="M73.125 20.625H76.875V30H73.125V20.625Z" fill="#FFE28F"/>
<path d="M80.625 5.625H84.375V20.625H80.625V5.625Z" fill="#FFE28F"/>
<path d="M80.625 24.375H84.375V30H80.625V24.375Z" fill="#FFE28F"/>
<path d="M73.125 5.625H76.875V16.875H73.125V5.625Z" fill="#FFE28F"/>
<path d="M58.125 43.125H61.875V56.25H58.125V43.125Z" fill="#FFE28F"/>
<path d="M65.625 43.125H69.375V48.75H65.625V43.125Z" fill="#FFE28F"/>
<path d="M90 16.875H97.5V30H90V16.875Z" fill="#F78E00"/>
<path d="M88.125 5.625H91.875V11.25H88.125V5.625Z" fill="#FFE28F"/>
<path d="M95.625 5.625H99.375V11.25H95.625V5.625Z" fill="#FFE28F"/>
<path d="M88.125 35.625H91.875V54.375H88.125V35.625Z" fill="#FFE28F"/>
<path d="M95.625 35.625H99.375V48.75H95.625V35.625Z" fill="#FFE28F"/>
<path d="M65.625 52.5H69.375V63.75H65.625V52.5Z" fill="#FFE28F"/>
<path d="M73.125 56.25H76.875V69.375H73.125V56.25Z" fill="#FFE28F"/>
<path d="M80.625 56.25H84.375V61.875H80.625V56.25Z" fill="#FFE28F"/>
<path d="M58.125 101.25L45 93.75L37.5 97.5V101.25H58.125Z" fill="#FFBFA1"/>
<path d="M19.9999 101.625L29.7243 95.7904L31.875 99.3749L45 101.25V106.875H24.375L19.9999 101.625Z" fill="#FFCEB6"/>
<path d="M15 95.625L24.375 106.875V114.375H15V95.625Z" fill="#C50031"/>
</svg>
