<svg width="40" height="40" viewBox="0 0 40 40" fill="none" xmlns="http://www.w3.org/2000/svg">
<path d="M34.1406 5.85938C30.3672 2.07812 25.3438 0 20 0C14.6562 0 9.63281 2.07812 5.85938 5.85938C2.07812 9.63281 0 14.6562 0 20C0 25.3438 2.07812 30.3672 5.85938 34.1406C9.64062 37.9219 14.6562 40 20 40C25.3438 40 30.3672 37.9219 34.1406 34.1406C37.9219 30.3594 40 25.3438 40 20C40 14.6562 37.9219 9.63281 34.1406 5.85938Z" fill="#5BCFFF"/>
<path d="M39.9688 18.8281H32.5C32.4453 16.2891 32.2188 13.8203 31.8359 11.5C33.7734 11.0781 35.6094 10.5547 37.2969 9.9375C36.8906 9.24219 36.4453 8.57031 35.9531 7.92969C34.5234 8.42969 32.9922 8.85156 31.3828 9.20312C31.1016 7.95312 30.7734 6.75781 30.3906 5.625C29.9531 4.32812 29.4688 3.14844 28.9297 2.09375C27.7578 1.50781 26.5312 1.03906 25.2656 0.695312C26.7812 2.5625 28.1719 5.63281 29.0781 9.64062C26.5625 10.0625 23.8906 10.3047 21.1719 10.3594V0.03125C20.7812 0.015625 20.3906 0 20 0C19.6094 0 19.2188 0.015625 18.8281 0.03125V10.3516C16.1016 10.2969 13.4375 10.0547 10.9219 9.63281C11.8281 5.63281 13.2188 2.5625 14.7344 0.695312C13.4688 1.03906 12.2422 1.50781 11.0703 2.09375C10.5312 3.14844 10.0469 4.32031 9.60938 5.625C9.22656 6.75781 8.89844 7.95312 8.61719 9.19531C7.00781 8.84375 5.47656 8.41406 4.05469 7.92188C3.5625 8.57031 3.11719 9.23438 2.71094 9.92969C4.39844 10.5469 6.23438 11.0781 8.17188 11.4922C7.78125 13.8125 7.55469 16.2812 7.5 18.8281H0.03125C0.015625 19.2188 0 19.6094 0 20C0 20.3906 0.015625 20.7812 0.03125 21.1719H7.5C7.55469 23.7109 7.78125 26.1797 8.16406 28.5C6.22656 28.9219 4.39062 29.4453 2.70312 30.0625C3.10937 30.7578 3.55469 31.4297 4.04688 32.0703C5.47656 31.5703 7.00781 31.1484 8.61719 30.7969C8.89844 32.0469 9.22656 33.2422 9.60938 34.375C10.0469 35.6719 10.5312 36.8516 11.0703 37.9062C12.2422 38.4922 13.4688 38.9609 14.7344 39.3047C13.2188 37.4375 11.8281 34.3672 10.9219 30.3594C13.4375 29.9375 16.1094 29.6953 18.8281 29.6406V39.9609C19.2188 39.9844 19.6094 39.9922 20 39.9922C20.3906 39.9922 20.7812 39.9766 21.1719 39.9609V29.6406C23.8984 29.6953 26.5625 29.9375 29.0781 30.3594C28.1719 34.3594 26.7812 37.4297 25.2656 39.2969C26.5312 38.9531 27.7578 38.4844 28.9297 37.8984C29.4609 36.8516 29.9531 35.6719 30.3906 34.3672C30.7734 33.2344 31.1016 32.0391 31.3828 30.7969C32.9922 31.1484 34.5234 31.5781 35.9453 32.0703C36.4375 31.4219 36.8828 30.7578 37.2891 30.0625C35.6016 29.4375 33.7656 28.9141 31.8281 28.5C32.2188 26.1797 32.4453 23.7109 32.5 21.1641H39.9688C39.9922 20.7734 40 20.3828 40 19.9922C40 19.6016 39.9844 19.2188 39.9688 18.8281ZM18.8281 27.2969C15.9531 27.3516 13.1328 27.6094 10.4688 28.0547C10.1172 25.9531 9.89844 23.6484 9.84375 21.1641H18.8281V27.2969ZM18.8281 18.8281H9.84375C9.89844 16.3438 10.1172 14.0312 10.4688 11.9375C13.1328 12.3828 15.9531 12.6484 18.8281 12.7031V18.8281ZM29.5312 28.0625C26.8672 27.6172 24.0469 27.3516 21.1719 27.2969V21.1719H30.1562C30.1016 23.6562 29.8828 25.9688 29.5312 28.0625ZM21.1719 18.8281V12.7031C24.0469 12.6484 26.8672 12.3906 29.5312 11.9453C29.8828 14.0469 30.1016 16.3516 30.1562 18.8359H21.1719V18.8281Z" fill="#32B5EC"/>
<path d="M20 0C19.6094 0 19.2188 0.015625 18.8281 0.03125V10.3516C16.1016 10.2969 13.4375 10.0547 10.9219 9.63281C11.8281 5.63281 13.2188 2.5625 14.7344 0.695312C13.4688 1.03906 12.2422 1.50781 11.0703 2.09375C10.5312 3.14844 10.0469 4.32031 9.60938 5.625C9.22656 6.75781 8.89844 7.95312 8.61719 9.19531C7.00781 8.84375 5.47656 8.41406 4.05469 7.92188C3.5625 8.57031 3.11719 9.23438 2.71094 9.92969C4.39844 10.5469 6.23438 11.0781 8.17188 11.4922C7.78125 13.8125 7.55469 16.2812 7.5 18.8281H0.03125C0.015625 19.2188 0 19.6094 0 20C0 20.3906 0.015625 20.7812 0.03125 21.1719H7.5C7.55469 23.7109 7.78125 26.1797 8.16406 28.5C6.22656 28.9219 4.39062 29.4453 2.70312 30.0625C3.10937 30.7578 3.55469 31.4297 4.04688 32.0703C5.47656 31.5703 7.00781 31.1484 8.61719 30.7969C8.89844 32.0469 9.22656 33.2422 9.60938 34.375C10.0469 35.6719 10.5312 36.8516 11.0703 37.9062C12.2422 38.4922 13.4688 38.9609 14.7344 39.3047C13.2188 37.4375 11.8281 34.3672 10.9219 30.3594C13.4375 29.9375 16.1094 29.6953 18.8281 29.6406V39.9609C19.2188 39.9844 19.6094 39.9922 20 39.9922V0ZM18.8281 27.2969C15.9531 27.3516 13.1328 27.6094 10.4688 28.0547C10.1172 25.9531 9.89844 23.6484 9.84375 21.1641H18.8281V27.2969ZM18.8281 18.8281H9.84375C9.89844 16.3438 10.1172 14.0312 10.4688 11.9375C13.1328 12.3828 15.9531 12.6484 18.8281 12.7031V18.8281Z" fill="#32B5EC"/>
<path d="M33.1563 17.0703L28.0938 9.36719C26.1954 5.60938 28.9376 1.17188 33.1563 1.17188C37.3751 1.17188 40.1173 5.60938 38.2188 9.36719L33.1563 17.0703Z" fill="#FC3869"/>
<path d="M33.1562 9.21094C34.5111 9.21094 35.6094 8.11613 35.6094 6.76563C35.6094 5.41512 34.5111 4.32031 33.1562 4.32031C31.8014 4.32031 30.7031 5.41512 30.7031 6.76563C30.7031 8.11613 31.8014 9.21094 33.1562 9.21094Z" fill="white"/>
</svg>
