<svg width="40" height="40" viewBox="0 0 40 40" fill="none" xmlns="http://www.w3.org/2000/svg">
<circle cx="20" cy="20" r="20" fill="#5BCFFF"/>
<g clip-path="url(#clip0)">
<path d="M11.8111 16.029C11.8069 16.0289 11.8026 16.0289 11.7984 16.029C8.11331 16.0797 5 19.1164 5 22.6601V24.7063C5 24.9653 5.20875 25.1751 5.46619 25.1751H18.1433C18.4008 25.1751 18.6095 24.9653 18.6095 24.7063V22.6601C18.6096 19.1164 15.4963 16.0797 11.8111 16.029Z" fill="#E9EFFF"/>
<path d="M11.8111 16.029C11.8068 16.0289 11.8026 16.0289 11.7983 16.029C11.517 16.0329 11.2391 16.0543 10.9656 16.092C14.275 16.5465 16.9312 19.3869 16.9312 22.6601V24.7063C16.9312 24.9653 16.7225 25.1751 16.465 25.1751H18.1433C18.4008 25.1751 18.6095 24.9653 18.6095 24.7063V22.6601C18.6095 19.1164 15.4962 16.0797 11.8111 16.029Z" fill="#DAE2FE"/>
<path d="M30.2018 16.029C30.1975 16.0289 30.1933 16.0289 30.189 16.029C26.5039 16.0797 23.3906 19.1163 23.3906 22.6601V24.7063C23.3906 24.9653 23.5994 25.1751 23.8568 25.1751H36.5339C36.7914 25.1751 37.0001 24.9653 37.0001 24.7063V22.6601C37.0001 19.1164 33.8868 16.0797 30.2018 16.029Z" fill="#E9EFFF"/>
<path d="M30.2015 16.029C30.1973 16.0289 30.193 16.0289 30.1888 16.029C29.9044 16.033 29.6234 16.0548 29.3469 16.0931C32.6522 16.5516 35.3034 19.3899 35.3034 22.6601V24.7063C35.3034 24.9652 35.0947 25.175 34.8372 25.175H36.5337C36.7912 25.175 36.9999 24.9652 36.9999 24.7063V22.6601C36.9999 19.1164 33.8866 16.0797 30.2015 16.029Z" fill="#DAE2FE"/>
<path d="M13.8872 21.9074L13.0198 18.1216C12.9697 17.9028 12.776 17.7478 12.5528 17.7478H11.0568C10.8335 17.7478 10.6398 17.9028 10.5897 18.1216L9.72234 21.9074C9.68352 22.0766 9.7384 22.2538 9.86584 22.371L11.4812 23.8576C11.5728 23.9418 11.6888 23.984 11.8048 23.984C11.9208 23.984 12.0368 23.9418 12.1283 23.8576L13.7437 22.371C13.8712 22.2537 13.926 22.0766 13.8872 21.9074Z" fill="#FC3869"/>
<path d="M13.7437 22.371C13.8711 22.2538 13.926 22.0766 13.8872 21.9074L13.0611 18.3017H11.8048H11.6L12.4436 21.9842L10.9446 23.3638L11.4812 23.8576C11.5728 23.9418 11.6888 23.984 11.8048 23.984C11.9208 23.984 12.0368 23.9418 12.1283 23.8576L13.7437 22.371Z" fill="#D3333C"/>
<path d="M13.0536 18.3017L13.9907 16.4181C13.3031 16.1765 12.5693 16.0395 11.8112 16.0291C11.8069 16.029 11.8027 16.029 11.7984 16.0291C11.0293 16.0396 10.2853 16.1807 9.58911 16.4289L10.5524 18.3018H13.0536V18.3017Z" fill="#D3333C"/>
<path d="M12.7858 16.1143L11.6 18.3017H11.8048H13.0537L13.9908 16.4181C13.6026 16.2818 13.1994 16.1801 12.7858 16.1143Z" fill="#AF273B"/>
<path d="M32.2733 21.9052L31.4078 18.1273C31.3578 17.909 31.1645 17.7544 30.9417 17.7544H29.4488C29.226 17.7544 29.0328 17.9091 28.9828 18.1273L28.1172 21.9052C28.0785 22.0741 28.1332 22.2508 28.2604 22.3679L29.8723 23.8513C29.9637 23.9355 30.0794 23.9775 30.1952 23.9775C30.3109 23.9775 30.4267 23.9355 30.5181 23.8513L32.1301 22.3679C32.2573 22.2509 32.312 22.0741 32.2733 21.9052Z" fill="#FC3869"/>
<path d="M29.8724 23.8513C29.9638 23.9354 30.0796 23.9774 30.1953 23.9774C30.3111 23.9774 30.4268 23.9354 30.5182 23.8513L32.1302 22.3678C32.2573 22.2508 32.3121 22.074 32.2734 21.9051L31.4477 18.3016H30.1953H29.9905L30.8342 21.9841L29.3389 23.3603L29.8724 23.8513Z" fill="#D3333C"/>
<path d="M31.4474 18.3017L32.4077 16.4276C31.7125 16.1802 30.9696 16.0396 30.2018 16.0291C30.1975 16.029 30.1933 16.029 30.189 16.0291C29.4206 16.0396 28.6771 16.1805 27.9814 16.4283L28.9432 18.3018L31.4474 18.3017Z" fill="#D3333C"/>
<path d="M31.1343 16.1075L29.9905 18.3017H30.1953H31.4473L32.4076 16.4276C31.9982 16.2819 31.572 16.1744 31.1343 16.1075Z" fill="#AF273B"/>
<path d="M30.1951 7.32141C28.2678 7.32141 26.6997 8.8981 26.6997 10.836V13.457C26.6997 15.395 28.2677 16.9716 30.1951 16.9716C32.1225 16.9716 33.6906 15.3949 33.6906 13.457V10.836C33.6906 8.8981 32.1225 7.32141 30.1951 7.32141Z" fill="#FFC89F"/>
<path d="M30.1953 7.32141C29.9067 7.32141 29.6264 7.35747 29.3579 7.4241C30.8821 7.80241 32.0159 9.18829 32.0159 10.836V13.457C32.0159 15.1047 30.8821 16.4906 29.3579 16.8689C29.6263 16.9355 29.9067 16.9716 30.1953 16.9716C32.1227 16.9716 33.6908 15.3949 33.6908 13.457V10.836C33.6908 8.8981 32.1227 7.32141 30.1953 7.32141Z" fill="#F7B081"/>
<path d="M33.6906 12.1462V10.836C33.6906 8.8981 32.1225 7.32147 30.1951 7.32147C28.2678 7.32147 26.6997 8.89816 26.6997 10.836V12.1465H27.1659C29.8136 12.1465 30.7781 10.3489 30.7781 10.3489C30.7781 10.3489 31.4524 12.1378 33.2244 12.1461H33.6906V12.1462Z" fill="#30144A"/>
<path d="M21.0064 23.5325C21.0022 23.5324 20.9979 23.5324 20.9937 23.5325C17.3086 23.5831 14.1953 26.6198 14.1953 30.1636V32.2098C14.1953 32.4688 14.4041 32.6786 14.6615 32.6786H27.3386C27.5961 32.6786 27.8048 32.4688 27.8048 32.2098V30.1636C27.8048 26.6198 24.6916 23.5832 21.0064 23.5325Z" fill="#E9EFFF"/>
<path d="M21.0064 23.5325C21.0022 23.5324 20.9979 23.5324 20.9937 23.5325C20.7049 23.5365 20.4195 23.5588 20.1389 23.5983C23.4382 24.0623 26.0825 26.8976 26.0825 30.1636V32.2098C26.0825 32.4687 25.8738 32.6785 25.6164 32.6785H27.3386C27.596 32.6785 27.8048 32.4687 27.8048 32.2098V30.1636C27.8048 26.6198 24.6915 23.5832 21.0064 23.5325Z" fill="#DAE2FE"/>
<path d="M23.0685 29.4038L22.2069 25.6435C22.1571 25.4263 21.9648 25.2723 21.743 25.2723H20.2571C20.0353 25.2723 19.843 25.4263 19.7931 25.6435L18.9316 29.4038C18.8931 29.5719 18.9475 29.7479 19.074 29.8643L20.6786 31.341C20.7695 31.4247 20.8848 31.4665 21 31.4665C21.1152 31.4665 21.2305 31.4247 21.3214 31.341L22.9259 29.8643C23.0525 29.7479 23.107 29.572 23.0685 29.4038Z" fill="#FC3869"/>
<path d="M22.2437 25.8052H20.7907L21.6522 29.5656L20.2007 30.9014L20.6784 31.341C20.7694 31.4247 20.8846 31.4666 20.9998 31.4666C21.1151 31.4666 21.2302 31.4247 21.3212 31.341L22.9257 29.8644C23.0523 29.7479 23.1067 29.5719 23.0682 29.4039L22.2437 25.8052Z" fill="#D3333C"/>
<path d="M22.2516 25.8052L23.2095 23.9301C22.515 23.6833 21.7732 23.5431 21.0063 23.5326C21.002 23.5324 20.9978 23.5324 20.9935 23.5326C20.2228 23.5431 19.4774 23.6848 18.78 23.9339L19.747 25.8053L22.2516 25.8052Z" fill="#D3333C"/>
<path d="M21.9038 23.6053L20.7952 25.8052H21H22.2517L23.2095 23.9301C22.79 23.781 22.353 23.6715 21.9038 23.6053Z" fill="#AF273B"/>
<path d="M21 14.825C19.0726 14.825 17.5046 16.516 17.5046 18.5945V21.4056C17.5046 23.4841 19.0727 25.1751 21.0001 25.1751C22.9275 25.1751 24.4955 23.4841 24.4955 21.4056V18.5945C24.4955 16.516 22.9274 14.825 21 14.825Z" fill="#FFC89F"/>
<path d="M21 14.825C20.7039 14.825 20.4164 14.8652 20.1416 14.9403C21.6553 15.3541 22.7787 16.8353 22.7787 18.5945V21.4056C22.7787 23.1647 21.6553 24.646 20.1417 25.0597C20.4164 25.1348 20.704 25.1751 21.0001 25.1751C22.9275 25.1751 24.4955 23.4841 24.4955 21.4056V18.5945C24.4954 16.516 22.9274 14.825 21 14.825Z" fill="#F7B081"/>
<path d="M24.4955 19.9996V18.5944C24.4955 16.5159 22.9275 14.8249 21.0001 14.8249C19.0727 14.8249 17.5046 16.5159 17.5046 18.5944V20H17.9708C20.6185 20 21.5831 18.072 21.5831 18.072C21.5831 18.072 22.2573 19.9907 24.0293 19.9996H24.4955Z" fill="#30144A"/>
<path d="M11.8048 7.32141C9.87739 7.32141 8.30933 8.8981 8.30933 10.836V13.457C8.30933 15.395 9.87739 16.9716 11.8048 16.9716C13.7321 16.9716 15.3002 15.3949 15.3002 13.457V10.836C15.3002 8.8981 13.7321 7.32141 11.8048 7.32141Z" fill="#FFC89F"/>
<path d="M11.8047 7.32141C11.5081 7.32141 11.2201 7.35904 10.9449 7.42929C12.4579 7.81554 13.5806 9.19629 13.5806 10.836V13.457C13.5806 15.0967 12.4579 16.4775 10.9449 16.8638C11.2201 16.934 11.5081 16.9717 11.8047 16.9717C13.7321 16.9717 15.3001 15.395 15.3001 13.4571V10.836C15.3001 8.8981 13.7321 7.32141 11.8047 7.32141Z" fill="#F7B081"/>
<path d="M15.3002 12.1462V10.836C15.3002 8.8981 13.7321 7.32147 11.8048 7.32147C9.87739 7.32147 8.30933 8.89816 8.30933 10.836V12.1465H8.77551C11.4232 12.1465 12.3878 10.3489 12.3878 10.3489C12.3878 10.3489 13.062 12.1378 14.834 12.1461H15.3002V12.1462Z" fill="#30144A"/>
</g>
<defs>
<clipPath id="clip0">
<rect width="32" height="32" fill="white" transform="translate(5 4)"/>
</clipPath>
</defs>
</svg>
