<svg width="40" height="40" viewBox="0 0 40 40" fill="none" xmlns="http://www.w3.org/2000/svg">
<circle cx="20" cy="20" r="20" fill="#FC3869"/>
<path d="M34.8955 33.3448C38.069 29.805 40 25.1283 40 20C40 8.9543 31.0457 0 20 0C8.9543 0 0 8.9543 0 20C0 25.1283 1.93102 29.805 5.10453 33.3448H34.8955Z" fill="#66E9FF"/>
<path d="M27.9272 4.12696C28.0742 3.77211 27.9056 3.36524 27.5508 3.21829L23.6566 1.60532C21.8822 0.870317 19.848 1.71297 19.1131 3.48727L18.8469 4.12985L23.3836 6.00899C25.158 6.74391 27.1922 5.90133 27.9272 4.12696Z" fill="#FF4155"/>
<path d="M30.2834 37.1547V30.4475H9.71667V37.1547C12.7216 38.9603 16.239 40 20 40C23.7611 40 27.2785 38.9603 30.2834 37.1547Z" fill="#30144A"/>
<path d="M32.5781 28.4375C31.66 27.6269 29.1079 26.8994 26.9293 26.3976V31.7855C26.9293 33.0758 27.4419 34.3132 28.3542 35.2255L30.2834 37.1547C32.0062 36.1194 33.5611 34.8333 34.8955 33.3448C34.1371 31.128 33.285 29.0616 32.5781 28.4375Z" fill="#665364"/>
<path d="M30.9778 35.2255C30.0655 34.3132 29.5529 33.0757 29.5529 31.7855V27.0865C28.7021 26.8278 27.7869 26.5952 26.9293 26.3976V31.7855C26.9293 33.0758 27.4419 34.3132 28.3542 35.2255L30.2834 37.1547C30.8252 36.8291 31.3503 36.4787 31.8573 36.105L30.9778 35.2255Z" fill="#543E5B"/>
<path d="M7.42184 28.4375C8.33996 27.6269 10.8921 26.8994 13.0707 26.3976V31.7855C13.0707 33.0758 12.5581 34.3132 11.6457 35.2255L9.7166 37.1547C7.99379 36.1194 6.43887 34.8333 5.10449 33.3448C5.86293 31.128 6.71496 29.0616 7.42184 28.4375Z" fill="#665364"/>
<path d="M8.95801 30.0062C9.6652 29.3818 11.342 28.8069 13.0707 28.3462V26.3976C10.8921 26.8994 8.33996 27.6269 7.42184 28.4375C6.71496 29.0616 5.86293 31.128 5.10449 33.3448C5.59137 33.8879 6.10793 34.4037 6.65098 34.8906C7.40402 32.6973 8.25793 30.6243 8.95801 30.0062Z" fill="#543E5B"/>
<path d="M20 35.135C15.4573 35.135 11.8988 32.0175 11.8988 28.0377V26.4752C11.8988 25.828 12.4235 25.3033 13.0707 25.3033H26.9293C27.5765 25.3033 28.1011 25.828 28.1011 26.4752V28.0377C28.1011 32.0174 24.5426 35.135 20 35.135Z" fill="#422953"/>
<path d="M20 30.4475C16.7715 30.4475 14.2426 28.3594 14.2426 25.6939V22.9595C14.2426 22.3123 14.7672 21.7877 15.4144 21.7877H24.5855C25.2327 21.7877 25.7574 22.3123 25.7574 22.9595V25.6939C25.7574 28.3594 23.2284 30.4475 20 30.4475Z" fill="#665364"/>
<path d="M18.8281 29.2756C18.8281 28.6284 19.3528 28.1037 20 28.1037V21.7877H15.4144C14.7672 21.7877 14.2426 22.3123 14.2426 22.9595V25.6939C14.2426 28.3594 16.7715 30.4475 20 30.4475C19.3528 30.4475 18.8281 29.9228 18.8281 29.2756Z" fill="#543E5B"/>
<path d="M20 15.3073H14.2426V22.6944L17.1715 23.6165H20H22.8285L25.7574 22.6944V15.3073H20Z" fill="#30144A"/>
<path d="M16.5863 16.9384V25.6939C16.5863 27.0248 18.1147 28.1037 20 28.1037C21.8853 28.1037 23.4136 27.0248 23.4136 25.6939V16.9384H16.5863Z" fill="#F9BA8F"/>
<path d="M16.5863 16.9384V25.6939C20.2529 25.6939 22.3087 22.8799 22.3087 22.8799L23.4136 16.9385H16.5863V16.9384Z" fill="#FCAD6D"/>
<path d="M26.3476 13.533C26.3476 18.2072 23.5057 23.6892 20 23.6892C16.4944 23.6892 13.6525 18.2072 13.6525 13.533C13.6525 8.85876 16.4943 5.49783 20 5.49783C23.5057 5.49783 26.3476 8.85868 26.3476 13.533Z" fill="#F9D0B4"/>
<path d="M15.9495 13.533C15.9495 9.38165 18.1912 6.26657 21.1486 5.6215C20.7761 5.54025 20.3922 5.4979 20 5.4979C16.4943 5.4979 13.6525 8.85876 13.6525 13.533C13.6525 18.2072 16.4943 23.6891 20 23.6891C20.3922 23.6891 20.7761 23.6201 21.1486 23.4916C18.1912 22.4722 15.9495 17.6843 15.9495 13.533Z" fill="#F9BA8F"/>
<path d="M20.0001 39.0116C16.7687 39.0116 13.6954 37.6116 11.568 35.1704C11.3554 34.9264 11.3808 34.5563 11.6248 34.3437C11.8688 34.1311 12.2388 34.1565 12.4515 34.4005C14.3562 36.5861 17.1076 37.8396 20.0001 37.8396C22.8926 37.8396 25.644 36.5861 27.5488 34.4004C27.7614 34.1564 28.1315 34.1311 28.3755 34.3436C28.6195 34.5563 28.6449 34.9263 28.4323 35.1703C26.3047 37.6116 23.2313 39.0116 20.0001 39.0116Z" fill="#665364"/>
<path d="M27.9904 36.348C28.8533 36.348 29.5529 35.6484 29.5529 34.7855C29.5529 33.9225 28.8533 33.223 27.9904 33.223C27.1274 33.223 26.4279 33.9225 26.4279 34.7855C26.4279 35.6484 27.1274 36.348 27.9904 36.348Z" fill="#E9EFFF"/>
<path d="M27.9783 34.7855C27.9783 34.2049 28.2957 33.6995 28.7656 33.4301C28.537 33.299 28.2728 33.223 27.9904 33.223C27.1274 33.223 26.4279 33.9225 26.4279 34.7855C26.4279 35.6484 27.1274 36.348 27.9904 36.348C28.2728 36.348 28.537 36.272 28.7656 36.1409C28.2956 35.8715 27.9783 35.366 27.9783 34.7855Z" fill="#DAE2FE"/>
<path d="M12.0096 36.348C12.8726 36.348 13.5721 35.6484 13.5721 34.7855C13.5721 33.9225 12.8726 33.223 12.0096 33.223C11.1467 33.223 10.4471 33.9225 10.4471 34.7855C10.4471 35.6484 11.1467 36.348 12.0096 36.348Z" fill="#E9EFFF"/>
<path d="M11.9976 34.7855C11.9976 34.2049 12.315 33.6995 12.7849 33.4301C12.5563 33.299 12.2921 33.223 12.0096 33.223C11.1467 33.223 10.4471 33.9225 10.4471 34.7855C10.4471 35.6484 11.1467 36.348 12.0096 36.348C12.2921 36.348 12.5563 36.272 12.7849 36.1409C12.315 35.8715 11.9976 35.366 11.9976 34.7855Z" fill="#DAE2FE"/>
<path d="M28.1012 10.7207C28.7484 10.7207 29.2731 11.2454 29.2731 11.8926V17.2944C29.2731 17.9416 28.7484 18.4662 28.1012 18.4662C27.454 18.4662 26.9293 17.9416 26.9293 17.2944V11.8926C26.9293 11.2454 27.454 10.7207 28.1012 10.7207Z" fill="#30144A"/>
<path d="M11.8988 10.7207C12.546 10.7207 13.0707 11.2454 13.0707 11.8926V17.2944C13.0707 17.9416 12.546 18.4662 11.8988 18.4662C11.2516 18.4662 10.7269 17.9416 10.7269 17.2944V11.8926C10.7269 11.2454 11.2516 10.7207 11.8988 10.7207Z" fill="#30144A"/>
<path d="M11.8988 11.2877V19.4684C11.8988 22.0437 13.9865 24.1313 16.5617 24.1313C16.8626 24.1313 17.1329 23.9153 17.168 23.6165C17.2098 23.2611 16.9333 22.9595 16.5863 22.9595C15.6132 22.9595 14.8243 22.1705 14.8243 21.1974V12.8502H25.1758V21.1974C25.1758 22.1614 24.4017 22.9446 23.4412 22.9593C23.1239 22.9641 22.8446 23.198 22.8286 23.515C22.8115 23.8524 23.0801 24.1314 23.4137 24.1314C26.0026 24.1314 28.1012 22.0327 28.1012 19.4439V11.2877C28.1012 6.81352 24.4742 3.18649 20.0001 3.18649C15.5258 3.18649 11.8988 6.81352 11.8988 11.2877Z" fill="#543E5B"/>
<path d="M20 3.73195V3.18649C15.5258 3.18649 11.8988 6.81352 11.8988 11.2877V19.4684C11.8988 22.0437 13.9865 24.1313 16.5617 24.1313C16.8626 24.1313 17.1329 23.9153 17.168 23.6165C17.2098 23.2611 16.9333 22.9595 16.5863 22.9595C15.6132 22.9595 14.8243 22.1705 14.8243 21.1974V16.2186C14.8238 16.1906 14.8222 16.163 14.8222 16.1348V11.2877C14.8221 7.84453 16.9709 4.90469 20 3.73195Z" fill="#422953"/>
<path d="M21.1719 7.30627H18.8281V3.27962C18.8281 2.63244 19.3528 2.10775 20 2.10775C20.6472 2.10775 21.1719 2.63244 21.1719 3.27962V7.30627Z" fill="#422953"/>
<path d="M19.0327 6.25624L11.9941 8.05522C11.6482 8.14358 11.4062 8.45514 11.4062 8.81217V12.6298C11.4062 12.9867 11.6482 13.2983 11.9941 13.3867L19.0327 15.1857C19.6674 15.3479 20.3327 15.3479 20.9673 15.1857L28.006 13.3867C28.3519 13.2983 28.5938 12.9868 28.5938 12.6298V8.81217C28.5938 8.45522 28.3519 8.14366 28.006 8.05522L20.9673 6.25624C20.3327 6.09397 19.6673 6.09397 19.0327 6.25624Z" fill="#665364"/>
<path d="M19.4141 14.7213C19.4141 14.3978 19.6764 14.1354 20 14.1354V7.30643C19.6764 7.30643 19.4141 7.04408 19.4141 6.72049C19.4141 6.3969 19.6764 6.13455 20 6.13455C19.675 6.13455 19.35 6.1751 19.0327 6.25619L11.9941 8.05518C11.6482 8.14354 11.4062 8.45518 11.4062 8.81213V12.6297C11.4062 12.9867 11.6482 13.2982 11.9941 13.3866L19.0327 15.1856C19.3501 15.2667 19.6751 15.3072 20 15.3072C19.6764 15.3073 19.4141 15.0449 19.4141 14.7213Z" fill="#543E5B"/>
<path d="M14.6094 9.17571V12.2659C14.6094 12.5596 14.3326 12.7746 14.048 12.7019L12.9168 12.413C12.7175 12.3621 12.5781 12.1826 12.5781 11.977V9.465C12.5781 9.25938 12.7174 9.07993 12.9166 9.02899L14.0478 8.73969C14.3324 8.66696 14.6094 8.88196 14.6094 9.17571Z" fill="#422953"/>
<path d="M17.8125 8.35697V13.0847C17.8125 13.3785 17.5357 13.5935 17.2511 13.5207L16.1199 13.2318C15.9206 13.181 15.7812 13.0014 15.7812 12.7958V8.64634C15.7812 8.44072 15.9205 8.26127 16.1198 8.21033L17.2509 7.92103C17.5355 7.84822 17.8125 8.06322 17.8125 8.35697Z" fill="#422953"/>
<path d="M21.0156 7.82734V13.6141C21.0156 13.8195 20.8764 13.999 20.6773 14.05C20.4563 14.107 20.2281 14.1351 20 14.1351C19.7719 14.1351 19.5438 14.107 19.3227 14.05C19.1236 13.999 18.9844 13.8195 18.9844 13.6141V7.82734C18.9844 7.62187 19.1236 7.44242 19.3227 7.3914C19.5438 7.33515 19.7719 7.30624 20 7.30624C20.2281 7.30624 20.4563 7.33515 20.6773 7.3914C20.8764 7.44242 21.0156 7.62179 21.0156 7.82734Z" fill="#543E5B"/>
<path d="M24.2188 8.64625V12.7957C24.2188 13.0013 24.0794 13.1809 23.8801 13.2317L22.7489 13.5206C22.4643 13.5933 22.1875 13.3783 22.1875 13.0846V8.35688C22.1875 8.06313 22.4645 7.84805 22.7491 7.92086L23.8802 8.21016C24.0795 8.26125 24.2188 8.4407 24.2188 8.64625Z" fill="#543E5B"/>
<path d="M27.4219 9.46501V11.977C27.4219 12.1826 27.2825 12.3621 27.0832 12.413L25.952 12.7019C25.6674 12.7745 25.3906 12.5595 25.3906 12.2659V9.17571C25.3906 8.88196 25.6676 8.66688 25.9522 8.73969L27.0834 9.02899C27.2826 9.08001 27.4219 9.25946 27.4219 9.46501Z" fill="#543E5B"/>
</svg>
