<svg width="16" height="11" viewBox="0 0 16 11" fill="none" xmlns="http://www.w3.org/2000/svg">
<path d="M7.99996 0.666664C4.66663 0.666664 1.81996 2.74 0.666626 5.66666C1.81996 8.59333 4.66663 10.6667 7.99996 10.6667C11.3333 10.6667 14.18 8.59333 15.3333 5.66666C14.18 2.74 11.3333 0.666664 7.99996 0.666664ZM7.99996 9C6.15996 9 4.66663 7.50666 4.66663 5.66666C4.66663 3.82666 6.15996 2.33333 7.99996 2.33333C9.83996 2.33333 11.3333 3.82666 11.3333 5.66666C11.3333 7.50666 9.83996 9 7.99996 9ZM7.99996 3.66666C6.89329 3.66666 5.99996 4.56 5.99996 5.66666C5.99996 6.77333 6.89329 7.66666 7.99996 7.66666C9.10663 7.66666 9.99996 6.77333 9.99996 5.66666C9.99996 4.56 9.10663 3.66666 7.99996 3.66666Z" fill="#99A6B2"/>
</svg>
